<?xml version="1.0" encoding="UTF-8" standalone="no"?>
<!DOCTYPE svg PUBLIC "-//W3C//DTD SVG 1.1//EN" "http://www.w3.org/Graphics/SVG/1.1/DTD/svg11.dtd">
<svg xmlns="http://www.w3.org/2000/svg" version="1.1" viewBox="0.00 0.00 1024.00 142.00">
<g stroke-width="2.00" fill="none" stroke-linecap="butt">
<path stroke="#e68081" vector-effect="non-scaling-stroke" d="
  M 210.55 88.98
  Q 215.85 78.48 222.94 67.08
  Q 238.92 41.40 256.64 11.36
  C 258.00 9.07 259.82 4.46 257.21 2.41
  Q 255.17 0.80 252.23 0.76
  Q 244.24 0.67 234.02 0.68
  Q 230.24 0.68 227.59 1.96
  Q 223.45 3.95 221.27 7.55
  Q 192.01 55.86 184.25 68.29
  Q 181.94 71.99 179.81 75.66
  Q 175.66 82.81 175.64 82.85
  Q 169.82 92.50 165.34 103.01
  Q 164.62 104.69 162.96 110.99
  Q 162.54 112.59 162.85 119.89
  C 163.22 128.76 171.36 135.86 179.15 138.43
  Q 181.26 139.12 184.65 140.09
  C 188.44 141.17 192.43 140.82 196.29 141.19
  Q 199.08 141.46 202.50 141.33
  Q 212.52 140.95 219.50 139.88
  Q 229.10 138.42 240.53 133.73
  Q 261.90 124.98 279.39 108.05
  C 288.68 99.06 296.30 87.72 303.12 76.37
  Q 322.62 43.95 341.78 11.88
  Q 343.35 9.25 343.92 5.79
  C 344.56 1.85 340.02 1.02 337.27 0.84
  Q 329.13 0.30 317.97 0.74
  C 311.67 0.99 308.13 4.92 305.10 9.99
  Q 283.49 46.16 262.87 80.08
  Q 259.18 86.15 254.73 91.78
  C 246.17 102.60 231.25 110.76 217.16 108.55
  C 212.68 107.85 208.93 104.41 208.70 99.56
  Q 208.39 93.27 210.55 88.98"
/>
<path stroke="#e68081" vector-effect="non-scaling-stroke" d="
  M 467.42 1.09
  C 462.77 2.25 460.29 6.80 459.22 11.33
  Q 455.70 26.15 450.88 41.09
  C 450.14 43.40 449.83 45.78 449.04 48.05
  C 446.49 55.37 444.56 63.06 442.36 70.53
  C 441.78 72.51 441.46 74.81 440.92 76.49
  Q 437.32 87.83 434.28 98.72
  Q 432.32 105.76 430.08 112.84
  C 428.59 117.58 427.67 122.26 426.18 126.93
  Q 425.02 130.59 425.66 133.78
  C 426.57 138.29 434.18 138.10 437.60 138.16
  Q 448.74 138.38 456.90 137.36
  C 463.03 136.59 467.67 130.58 471.51 126.47
  Q 491.49 105.03 510.98 83.99
  Q 517.32 77.15 523.95 71.08
  Q 525.40 69.76 527.63 69.76
  Q 528.26 69.75 528.41 70.37
  Q 529.14 73.42 528.51 76.74
  Q 527.13 84.03 525.19 90.25
  Q 522.24 99.71 519.88 108.90
  C 519.52 110.28 518.83 111.58 518.56 112.95
  Q 517.22 119.77 515.19 126.56
  C 514.52 128.79 514.69 131.10 514.76 133.37
  A 1.62 1.62 0.0 0 0 515.12 134.33
  C 516.02 135.39 516.49 136.27 517.95 136.72
  Q 520.44 137.48 523.33 137.48
  Q 534.25 137.50 544.12 137.20
  C 550.41 137.01 554.34 132.96 558.41 128.42
  Q 569.07 116.53 579.71 104.96
  C 594.09 89.31 609.22 72.69 624.70 55.95
  Q 646.32 32.56 667.72 8.98
  C 669.46 7.07 670.96 2.72 667.64 1.44
  C 666.25 0.90 664.50 0.56 663.00 0.54
  Q 653.28 0.40 644.56 0.54
  Q 638.63 0.64 635.36 3.63
  Q 631.15 7.48 627.86 11.12
  Q 605.63 35.75 582.66 61.53
  Q 577.49 67.32 571.90 72.15
  Q 570.35 73.49 568.52 72.97
  Q 567.97 72.81 567.84 72.24
  C 566.79 67.34 568.59 61.25 569.96 56.49
  Q 571.80 50.12 572.76 45.86
  Q 574.78 36.98 577.46 28.27
  C 578.20 25.85 578.37 23.44 579.12 21.12
  C 580.45 17.01 581.23 12.67 582.14 8.54
  C 583.38 2.91 578.84 0.66 574.21 0.56
  Q 568.08 0.42 561.82 0.59
  Q 555.22 0.78 550.59 5.59
  Q 541.29 15.22 529.81 27.71
  Q 517.11 41.52 503.31 56.14
  C 497.65 62.14 492.25 68.83 486.46 74.30
  Q 484.33 76.32 481.37 75.96
  Q 480.73 75.88 480.59 75.25
  Q 480.14 73.24 480.55 71.27
  Q 481.87 64.95 483.77 59.01
  Q 491.49 34.88 498.71 11.96
  C 499.52 9.39 500.36 5.08 498.24 3.01
  Q 496.02 0.84 492.50 0.78
  Q 482.14 0.61 471.15 0.62
  Q 469.29 0.63 467.42 1.09"
/>
<path stroke="#e68081" vector-effect="non-scaling-stroke" d="
  M 665.76 110.18
  Q 670.59 102.13 674.83 95.09
  Q 698.23 56.24 721.59 17.39
  C 723.73 13.84 732.64 2.30 722.98 0.87
  C 717.38 0.04 711.13 0.52 705.42 0.45
  C 699.91 0.38 695.40 1.68 692.34 6.08
  C 688.85 11.09 685.91 16.67 682.66 21.99
  Q 664.58 51.62 646.62 81.91
  C 637.73 96.90 628.54 111.77 619.78 126.78
  C 618.30 129.33 617.72 131.62 618.29 134.48
  C 618.81 137.08 623.21 137.46 625.26 137.47
  Q 632.54 137.49 640.98 137.44
  Q 649.34 137.40 653.59 130.36
  Q 659.75 120.19 665.76 110.18"
/>
<path stroke="#e68081" vector-effect="non-scaling-stroke" d="
  M 799.73 9.20
  C 798.88 5.33 796.10 1.21 791.78 1.17
  Q 778.65 1.05 767.07 1.01
  C 763.21 1.00 760.96 2.35 758.35 5.03
  Q 756.73 6.70 755.72 8.35
  Q 721.72 64.42 685.67 125.01
  C 683.75 128.23 682.22 129.88 682.83 134.38
  Q 682.90 134.85 683.20 135.21
  Q 684.98 137.33 688.96 137.41
  Q 697.19 137.57 706.82 137.38
  Q 711.62 137.29 713.68 136.23
  Q 718.00 133.99 721.13 128.67
  Q 739.96 96.63 758.91 65.28
  C 760.60 62.49 764.83 61.11 766.41 65.14
  Q 767.51 67.99 768.01 70.64
  Q 770.50 84.10 773.43 97.96
  C 774.40 102.56 775.02 107.32 776.13 111.86
  Q 777.27 116.53 778.15 121.19
  Q 779.15 126.44 780.37 130.51
  C 781.37 133.86 784.70 136.81 788.39 136.80
  Q 800.14 136.75 812.07 136.80
  C 817.87 136.82 821.32 132.41 824.07 127.84
  Q 858.21 71.22 893.32 13.64
  Q 895.01 10.87 896.06 7.81
  C 897.20 4.51 895.60 1.41 892.02 1.10
  Q 881.37 0.16 870.25 0.99
  C 865.15 1.36 861.79 3.50 859.16 7.92
  Q 841.43 37.65 821.83 70.83
  Q 820.76 72.64 818.28 74.62
  C 814.64 77.53 812.25 72.02 811.75 69.49
  Q 809.78 59.70 808.14 50.19
  C 807.64 47.29 806.77 44.52 806.23 41.53
  Q 803.37 25.80 799.73 9.20"
/>
<path stroke="#e68081" vector-effect="non-scaling-stroke" d="
  M 1020.30 49.92
  Q 1024.40 39.01 1023.34 28.13
  Q 1022.23 16.82 1012.42 8.29
  C 1005.32 2.12 993.64 0.53 984.58 0.51
  Q 960.12 0.45 935.80 0.55
  C 931.44 0.57 927.82 3.63 925.48 6.98
  Q 922.31 11.51 918.35 18.12
  Q 902.02 45.41 884.78 74.02
  C 874.05 91.83 863.62 108.49 853.41 126.30
  C 852.15 128.49 851.02 131.04 851.63 133.56
  C 852.43 136.84 856.44 137.13 859.24 137.21
  Q 867.65 137.44 873.43 137.21
  Q 883.80 136.79 887.58 136.78
  Q 893.55 136.76 899.10 136.76
  Q 905.61 136.76 910.37 136.13
  C 918.52 135.05 926.45 132.83 934.34 129.89
  C 962.05 119.55 986.01 101.42 1004.39 77.93
  Q 1014.75 64.69 1020.30 49.92"
/>
<path stroke="#e68081" vector-effect="non-scaling-stroke" d="
  M 167.91 11.25
  C 168.65 7.94 168.36 3.81 165.11 2.11
  Q 163.49 1.27 160.37 1.09
  Q 147.23 0.36 135.74 0.91
  C 130.05 1.18 126.09 4.69 122.41 8.53
  Q 105.10 26.54 87.19 44.22
  C 84.47 46.90 81.94 49.93 79.23 52.64
  Q 50.83 81.04 22.96 108.96
  C 16.12 115.81 9.89 122.57 2.69 129.68
  C 0.49 131.85 -0.99 136.23 2.90 137.65
  Q 5.42 138.57 8.16 138.65
  Q 16.86 138.90 25.11 138.63
  Q 32.16 138.39 37.25 133.65
  Q 43.34 127.97 49.41 121.57
  C 53.58 117.17 57.91 114.90 63.77 114.84
  Q 78.67 114.67 93.91 114.76
  C 98.53 114.78 102.71 116.14 102.65 121.26
  Q 102.60 125.42 101.88 128.87
  C 100.47 135.70 104.66 138.38 110.56 138.31
  Q 120.96 138.19 130.80 138.29
  C 134.23 138.32 138.38 137.10 140.05 133.92
  Q 142.12 129.96 142.78 124.80
  C 143.00 123.13 143.60 121.62 143.93 119.98
  C 146.97 105.04 150.60 90.30 153.61 75.92
  Q 155.87 65.14 158.04 54.94
  Q 158.64 52.10 159.42 49.14
  C 160.65 44.41 161.36 39.50 162.51 34.68
  Q 165.39 22.61 167.91 11.25"
/>
<path stroke="#e68081" vector-effect="non-scaling-stroke" d="
  M 445.26 1.51
  Q 445.17 1.40 445.07 1.31
  A 1.09 1.05 -24.5 0 0 444.34 1.05
  Q 412.92 1.09 381.20 1.04
  Q 378.20 1.04 375.77 2.29
  Q 371.95 4.26 369.70 8.01
  Q 356.91 29.21 344.89 48.91
  C 334.05 66.68 324.08 83.71 312.50 102.74
  Q 305.42 114.36 298.15 126.43
  Q 295.20 131.31 295.68 135.02
  Q 295.74 135.55 296.10 135.95
  Q 298.43 138.50 302.24 138.63
  Q 311.04 138.93 319.73 138.59
  Q 328.23 138.26 331.84 132.32
  Q 343.06 113.90 352.89 97.82
  C 356.32 92.20 360.15 85.08 367.71 85.25
  Q 371.83 85.35 375.67 85.04
  C 381.52 84.59 387.46 84.70 393.23 84.64
  Q 399.44 84.59 403.17 79.32
  Q 408.12 72.32 413.57 62.28
  C 416.63 56.64 413.50 53.46 407.62 53.40
  Q 400.04 53.32 392.46 53.25
  Q 388.90 53.22 386.01 51.12
  Q 385.63 50.84 385.47 50.39
  Q 384.34 47.23 386.01 43.88
  C 389.34 37.19 393.30 31.39 401.74 31.70
  Q 405.85 31.85 409.59 31.57
  C 415.29 31.15 421.02 31.18 426.75 31.34
  C 432.60 31.50 436.64 29.97 439.95 24.92
  Q 445.11 17.05 449.30 9.60
  Q 450.73 7.06 449.81 4.52
  Q 448.94 2.12 445.46 1.62
  Q 445.34 1.61 445.26 1.51"
/>
<path stroke="#e68081" vector-effect="non-scaling-stroke" d="
  M 944.39 37.39
  C 932.45 56.53 921.09 75.73 909.35 94.96
  C 907.84 97.43 905.74 102.26 909.26 104.16
  Q 912.00 105.64 914.85 105.45
  Q 928.40 104.55 938.37 99.42
  C 955.40 90.67 969.39 76.55 977.35 58.86
  C 978.83 55.57 979.17 52.05 979.19 48.48
  C 979.25 38.66 972.90 32.38 963.50 31.49
  Q 958.75 31.04 953.98 31.41
  Q 947.83 31.87 944.39 37.39"
/>
<path stroke="#e68081" vector-effect="non-scaling-stroke" d="
  M 112.82 76.30
  Q 114.20 71.48 115.51 66.77
  Q 116.48 63.25 115.82 59.65
  A 1.73 1.73 0.0 0 0 113.56 58.32
  C 111.60 58.98 109.56 60.30 108.16 61.78
  Q 104.62 65.52 100.79 68.32
  Q 98.92 69.68 97.71 71.64
  C 95.62 75.03 90.64 78.02 90.08 82.15
  C 89.24 88.27 100.85 87.19 104.47 86.58
  Q 106.71 86.19 108.38 84.80
  C 111.30 82.36 111.86 79.67 112.82 76.30"
/>
</g>
<path fill="#ffffff" d="
  M 0.00 0.00
  L 1024.00 0.00
  L 1024.00 142.00
  L 0.00 142.00
  L 0.00 0.00
  Z
  M 210.55 88.98
  Q 215.85 78.48 222.94 67.08
  Q 238.92 41.40 256.64 11.36
  C 258.00 9.07 259.82 4.46 257.21 2.41
  Q 255.17 0.80 252.23 0.76
  Q 244.24 0.67 234.02 0.68
  Q 230.24 0.68 227.59 1.96
  Q 223.45 3.95 221.27 7.55
  Q 192.01 55.86 184.25 68.29
  Q 181.94 71.99 179.81 75.66
  Q 175.66 82.81 175.64 82.85
  Q 169.82 92.50 165.34 103.01
  Q 164.62 104.69 162.96 110.99
  Q 162.54 112.59 162.85 119.89
  C 163.22 128.76 171.36 135.86 179.15 138.43
  Q 181.26 139.12 184.65 140.09
  C 188.44 141.17 192.43 140.82 196.29 141.19
  Q 199.08 141.46 202.50 141.33
  Q 212.52 140.95 219.50 139.88
  Q 229.10 138.42 240.53 133.73
  Q 261.90 124.98 279.39 108.05
  C 288.68 99.06 296.30 87.72 303.12 76.37
  Q 322.62 43.95 341.78 11.88
  Q 343.35 9.25 343.92 5.79
  C 344.56 1.85 340.02 1.02 337.27 0.84
  Q 329.13 0.30 317.97 0.74
  C 311.67 0.99 308.13 4.92 305.10 9.99
  Q 283.49 46.16 262.87 80.08
  Q 259.18 86.15 254.73 91.78
  C 246.17 102.60 231.25 110.76 217.16 108.55
  C 212.68 107.85 208.93 104.41 208.70 99.56
  Q 208.39 93.27 210.55 88.98
  Z
  M 467.42 1.09
  C 462.77 2.25 460.29 6.80 459.22 11.33
  Q 455.70 26.15 450.88 41.09
  C 450.14 43.40 449.83 45.78 449.04 48.05
  C 446.49 55.37 444.56 63.06 442.36 70.53
  C 441.78 72.51 441.46 74.81 440.92 76.49
  Q 437.32 87.83 434.28 98.72
  Q 432.32 105.76 430.08 112.84
  C 428.59 117.58 427.67 122.26 426.18 126.93
  Q 425.02 130.59 425.66 133.78
  C 426.57 138.29 434.18 138.10 437.60 138.16
  Q 448.74 138.38 456.90 137.36
  C 463.03 136.59 467.67 130.58 471.51 126.47
  Q 491.49 105.03 510.98 83.99
  Q 517.32 77.15 523.95 71.08
  Q 525.40 69.76 527.63 69.76
  Q 528.26 69.75 528.41 70.37
  Q 529.14 73.42 528.51 76.74
  Q 527.13 84.03 525.19 90.25
  Q 522.24 99.71 519.88 108.90
  C 519.52 110.28 518.83 111.58 518.56 112.95
  Q 517.22 119.77 515.19 126.56
  C 514.52 128.79 514.69 131.10 514.76 133.37
  A 1.62 1.62 0.0 0 0 515.12 134.33
  C 516.02 135.39 516.49 136.27 517.95 136.72
  Q 520.44 137.48 523.33 137.48
  Q 534.25 137.50 544.12 137.20
  C 550.41 137.01 554.34 132.96 558.41 128.42
  Q 569.07 116.53 579.71 104.96
  C 594.09 89.31 609.22 72.69 624.70 55.95
  Q 646.32 32.56 667.72 8.98
  C 669.46 7.07 670.96 2.72 667.64 1.44
  C 666.25 0.90 664.50 0.56 663.00 0.54
  Q 653.28 0.40 644.56 0.54
  Q 638.63 0.64 635.36 3.63
  Q 631.15 7.48 627.86 11.12
  Q 605.63 35.75 582.66 61.53
  Q 577.49 67.32 571.90 72.15
  Q 570.35 73.49 568.52 72.97
  Q 567.97 72.81 567.84 72.24
  C 566.79 67.34 568.59 61.25 569.96 56.49
  Q 571.80 50.12 572.76 45.86
  Q 574.78 36.98 577.46 28.27
  C 578.20 25.85 578.37 23.44 579.12 21.12
  C 580.45 17.01 581.23 12.67 582.14 8.54
  C 583.38 2.91 578.84 0.66 574.21 0.56
  Q 568.08 0.42 561.82 0.59
  Q 555.22 0.78 550.59 5.59
  Q 541.29 15.22 529.81 27.71
  Q 517.11 41.52 503.31 56.14
  C 497.65 62.14 492.25 68.83 486.46 74.30
  Q 484.33 76.32 481.37 75.96
  Q 480.73 75.88 480.59 75.25
  Q 480.14 73.24 480.55 71.27
  Q 481.87 64.95 483.77 59.01
  Q 491.49 34.88 498.71 11.96
  C 499.52 9.39 500.36 5.08 498.24 3.01
  Q 496.02 0.84 492.50 0.78
  Q 482.14 0.61 471.15 0.62
  Q 469.29 0.63 467.42 1.09
  Z
  M 665.76 110.18
  Q 670.59 102.13 674.83 95.09
  Q 698.23 56.24 721.59 17.39
  C 723.73 13.84 732.64 2.30 722.98 0.87
  C 717.38 0.04 711.13 0.52 705.42 0.45
  C 699.91 0.38 695.40 1.68 692.34 6.08
  C 688.85 11.09 685.91 16.67 682.66 21.99
  Q 664.58 51.62 646.62 81.91
  C 637.73 96.90 628.54 111.77 619.78 126.78
  C 618.30 129.33 617.72 131.62 618.29 134.48
  C 618.81 137.08 623.21 137.46 625.26 137.47
  Q 632.54 137.49 640.98 137.44
  Q 649.34 137.40 653.59 130.36
  Q 659.75 120.19 665.76 110.18
  Z
  M 799.73 9.20
  C 798.88 5.33 796.10 1.21 791.78 1.17
  Q 778.65 1.05 767.07 1.01
  C 763.21 1.00 760.96 2.35 758.35 5.03
  Q 756.73 6.70 755.72 8.35
  Q 721.72 64.42 685.67 125.01
  C 683.75 128.23 682.22 129.88 682.83 134.38
  Q 682.90 134.85 683.20 135.21
  Q 684.98 137.33 688.96 137.41
  Q 697.19 137.57 706.82 137.38
  Q 711.62 137.29 713.68 136.23
  Q 718.00 133.99 721.13 128.67
  Q 739.96 96.63 758.91 65.28
  C 760.60 62.49 764.83 61.11 766.41 65.14
  Q 767.51 67.99 768.01 70.64
  Q 770.50 84.10 773.43 97.96
  C 774.40 102.56 775.02 107.32 776.13 111.86
  Q 777.27 116.53 778.15 121.19
  Q 779.15 126.44 780.37 130.51
  C 781.37 133.86 784.70 136.81 788.39 136.80
  Q 800.14 136.75 812.07 136.80
  C 817.87 136.82 821.32 132.41 824.07 127.84
  Q 858.21 71.22 893.32 13.64
  Q 895.01 10.87 896.06 7.81
  C 897.20 4.51 895.60 1.41 892.02 1.10
  Q 881.37 0.16 870.25 0.99
  C 865.15 1.36 861.79 3.50 859.16 7.92
  Q 841.43 37.65 821.83 70.83
  Q 820.76 72.64 818.28 74.62
  C 814.64 77.53 812.25 72.02 811.75 69.49
  Q 809.78 59.70 808.14 50.19
  C 807.64 47.29 806.77 44.52 806.23 41.53
  Q 803.37 25.80 799.73 9.20
  Z
  M 1020.30 49.92
  Q 1024.40 39.01 1023.34 28.13
  Q 1022.23 16.82 1012.42 8.29
  C 1005.32 2.12 993.64 0.53 984.58 0.51
  Q 960.12 0.45 935.80 0.55
  C 931.44 0.57 927.82 3.63 925.48 6.98
  Q 922.31 11.51 918.35 18.12
  Q 902.02 45.41 884.78 74.02
  C 874.05 91.83 863.62 108.49 853.41 126.30
  C 852.15 128.49 851.02 131.04 851.63 133.56
  C 852.43 136.84 856.44 137.13 859.24 137.21
  Q 867.65 137.44 873.43 137.21
  Q 883.80 136.79 887.58 136.78
  Q 893.55 136.76 899.10 136.76
  Q 905.61 136.76 910.37 136.13
  C 918.52 135.05 926.45 132.83 934.34 129.89
  C 962.05 119.55 986.01 101.42 1004.39 77.93
  Q 1014.75 64.69 1020.30 49.92
  Z
  M 167.91 11.25
  C 168.65 7.94 168.36 3.81 165.11 2.11
  Q 163.49 1.27 160.37 1.09
  Q 147.23 0.36 135.74 0.91
  C 130.05 1.18 126.09 4.69 122.41 8.53
  Q 105.10 26.54 87.19 44.22
  C 84.47 46.90 81.94 49.93 79.23 52.64
  Q 50.83 81.04 22.96 108.96
  C 16.12 115.81 9.89 122.57 2.69 129.68
  C 0.49 131.85 -0.99 136.23 2.90 137.65
  Q 5.42 138.57 8.16 138.65
  Q 16.86 138.90 25.11 138.63
  Q 32.16 138.39 37.25 133.65
  Q 43.34 127.97 49.41 121.57
  C 53.58 117.17 57.91 114.90 63.77 114.84
  Q 78.67 114.67 93.91 114.76
  C 98.53 114.78 102.71 116.14 102.65 121.26
  Q 102.60 125.42 101.88 128.87
  C 100.47 135.70 104.66 138.38 110.56 138.31
  Q 120.96 138.19 130.80 138.29
  C 134.23 138.32 138.38 137.10 140.05 133.92
  Q 142.12 129.96 142.78 124.80
  C 143.00 123.13 143.60 121.62 143.93 119.98
  C 146.97 105.04 150.60 90.30 153.61 75.92
  Q 155.87 65.14 158.04 54.94
  Q 158.64 52.10 159.42 49.14
  C 160.65 44.41 161.36 39.50 162.51 34.68
  Q 165.39 22.61 167.91 11.25
  Z
  M 445.26 1.51
  Q 445.17 1.40 445.07 1.31
  A 1.09 1.05 -24.5 0 0 444.34 1.05
  Q 412.92 1.09 381.20 1.04
  Q 378.20 1.04 375.77 2.29
  Q 371.95 4.26 369.70 8.01
  Q 356.91 29.21 344.89 48.91
  C 334.05 66.68 324.08 83.71 312.50 102.74
  Q 305.42 114.36 298.15 126.43
  Q 295.20 131.31 295.68 135.02
  Q 295.74 135.55 296.10 135.95
  Q 298.43 138.50 302.24 138.63
  Q 311.04 138.93 319.73 138.59
  Q 328.23 138.26 331.84 132.32
  Q 343.06 113.90 352.89 97.82
  C 356.32 92.20 360.15 85.08 367.71 85.25
  Q 371.83 85.35 375.67 85.04
  C 381.52 84.59 387.46 84.70 393.23 84.64
  Q 399.44 84.59 403.17 79.32
  Q 408.12 72.32 413.57 62.28
  C 416.63 56.64 413.50 53.46 407.62 53.40
  Q 400.04 53.32 392.46 53.25
  Q 388.90 53.22 386.01 51.12
  Q 385.63 50.84 385.47 50.39
  Q 384.34 47.23 386.01 43.88
  C 389.34 37.19 393.30 31.39 401.74 31.70
  Q 405.85 31.85 409.59 31.57
  C 415.29 31.15 421.02 31.18 426.75 31.34
  C 432.60 31.50 436.64 29.97 439.95 24.92
  Q 445.11 17.05 449.30 9.60
  Q 450.73 7.06 449.81 4.52
  Q 448.94 2.12 445.46 1.62
  Q 445.34 1.61 445.26 1.51
  Z"
/>
<path fill="#cd0102" d="
  M 210.55 88.98
  Q 208.39 93.27 208.70 99.56
  C 208.93 104.41 212.68 107.85 217.16 108.55
  C 231.25 110.76 246.17 102.60 254.73 91.78
  Q 259.18 86.15 262.87 80.08
  Q 283.49 46.16 305.10 9.99
  C 308.13 4.92 311.67 0.99 317.97 0.74
  Q 329.13 0.30 337.27 0.84
  C 340.02 1.02 344.56 1.85 343.92 5.79
  Q 343.35 9.25 341.78 11.88
  Q 322.62 43.95 303.12 76.37
  C 296.30 87.72 288.68 99.06 279.39 108.05
  Q 261.90 124.98 240.53 133.73
  Q 229.10 138.42 219.50 139.88
  Q 212.52 140.95 202.50 141.33
  Q 199.08 141.46 196.29 141.19
  C 192.43 140.82 188.44 141.17 184.65 140.09
  Q 181.26 139.12 179.15 138.43
  C 171.36 135.86 163.22 128.76 162.85 119.89
  Q 162.54 112.59 162.96 110.99
  Q 164.62 104.69 165.34 103.01
  Q 169.82 92.50 175.64 82.85
  Q 175.66 82.81 179.81 75.66
  Q 181.94 71.99 184.25 68.29
  Q 192.01 55.86 221.27 7.55
  Q 223.45 3.95 227.59 1.96
  Q 230.24 0.68 234.02 0.68
  Q 244.24 0.67 252.23 0.76
  Q 255.17 0.80 257.21 2.41
  C 259.82 4.46 258.00 9.07 256.64 11.36
  Q 238.92 41.40 222.94 67.08
  Q 215.85 78.48 210.55 88.98
  Z"
/>
<path fill="#cd0102" d="
  M 467.42 1.09
  Q 469.29 0.63 471.15 0.62
  Q 482.14 0.61 492.50 0.78
  Q 496.02 0.84 498.24 3.01
  C 500.36 5.08 499.52 9.39 498.71 11.96
  Q 491.49 34.88 483.77 59.01
  Q 481.87 64.95 480.55 71.27
  Q 480.14 73.24 480.59 75.25
  Q 480.73 75.88 481.37 75.96
  Q 484.33 76.32 486.46 74.30
  C 492.25 68.83 497.65 62.14 503.31 56.14
  Q 517.11 41.52 529.81 27.71
  Q 541.29 15.22 550.59 5.59
  Q 555.22 0.78 561.82 0.59
  Q 568.08 0.42 574.21 0.56
  C 578.84 0.66 583.38 2.91 582.14 8.54
  C 581.23 12.67 580.45 17.01 579.12 21.12
  C 578.37 23.44 578.20 25.85 577.46 28.27
  Q 574.78 36.98 572.76 45.86
  Q 571.80 50.12 569.96 56.49
  C 568.59 61.25 566.79 67.34 567.84 72.24
  Q 567.97 72.81 568.52 72.97
  Q 570.35 73.49 571.90 72.15
  Q 577.49 67.32 582.66 61.53
  Q 605.63 35.75 627.86 11.12
  Q 631.15 7.48 635.36 3.63
  Q 638.63 0.64 644.56 0.54
  Q 653.28 0.40 663.00 0.54
  C 664.50 0.56 666.25 0.90 667.64 1.44
  C 670.96 2.72 669.46 7.07 667.72 8.98
  Q 646.32 32.56 624.70 55.95
  C 609.22 72.69 594.09 89.31 579.71 104.96
  Q 569.07 116.53 558.41 128.42
  C 554.34 132.96 550.41 137.01 544.12 137.20
  Q 534.25 137.50 523.33 137.48
  Q 520.44 137.48 517.95 136.72
  C 516.49 136.27 516.02 135.39 515.12 134.33
  A 1.62 1.62 0.0 0 1 514.76 133.37
  C 514.69 131.10 514.52 128.79 515.19 126.56
  Q 517.22 119.77 518.56 112.95
  C 518.83 111.58 519.52 110.28 519.88 108.90
  Q 522.24 99.71 525.19 90.25
  Q 527.13 84.03 528.51 76.74
  Q 529.14 73.42 528.41 70.37
  Q 528.26 69.75 527.63 69.76
  Q 525.40 69.76 523.95 71.08
  Q 517.32 77.15 510.98 83.99
  Q 491.49 105.03 471.51 126.47
  C 467.67 130.58 463.03 136.59 456.90 137.36
  Q 448.74 138.38 437.60 138.16
  C 434.18 138.10 426.57 138.29 425.66 133.78
  Q 425.02 130.59 426.18 126.93
  C 427.67 122.26 428.59 117.58 430.08 112.84
  Q 432.32 105.76 434.28 98.72
  Q 437.32 87.83 440.92 76.49
  C 441.46 74.81 441.78 72.51 442.36 70.53
  C 444.56 63.06 446.49 55.37 449.04 48.05
  C 449.83 45.78 450.14 43.40 450.88 41.09
  Q 455.70 26.15 459.22 11.33
  C 460.29 6.80 462.77 2.25 467.42 1.09
  Z"
/>
<path fill="#cd0102" d="
  M 665.76 110.18
  Q 659.75 120.19 653.59 130.36
  Q 649.34 137.40 640.98 137.44
  Q 632.54 137.49 625.26 137.47
  C 623.21 137.46 618.81 137.08 618.29 134.48
  C 617.72 131.62 618.30 129.33 619.78 126.78
  C 628.54 111.77 637.73 96.90 646.62 81.91
  Q 664.58 51.62 682.66 21.99
  C 685.91 16.67 688.85 11.09 692.34 6.08
  C 695.40 1.68 699.91 0.38 705.42 0.45
  C 711.13 0.52 717.38 0.04 722.98 0.87
  C 732.64 2.30 723.73 13.84 721.59 17.39
  Q 698.23 56.24 674.83 95.09
  Q 670.59 102.13 665.76 110.18
  Z"
/>
<path fill="#cd0102" d="
  M 791.78 1.17
  C 796.10 1.21 798.88 5.33 799.73 9.20
  Q 803.37 25.80 806.23 41.53
  C 806.77 44.52 807.64 47.29 808.14 50.19
  Q 809.78 59.70 811.75 69.49
  C 812.25 72.02 814.64 77.53 818.28 74.62
  Q 820.76 72.64 821.83 70.83
  Q 841.43 37.65 859.16 7.92
  C 861.79 3.50 865.15 1.36 870.25 0.99
  Q 881.37 0.16 892.02 1.10
  C 895.60 1.41 897.20 4.51 896.06 7.81
  Q 895.01 10.87 893.32 13.64
  Q 858.21 71.22 824.07 127.84
  C 821.32 132.41 817.87 136.82 812.07 136.80
  Q 800.14 136.75 788.39 136.80
  C 784.70 136.81 781.37 133.86 780.37 130.51
  Q 779.15 126.44 778.15 121.19
  Q 777.27 116.53 776.13 111.86
  C 775.02 107.32 774.40 102.56 773.43 97.96
  Q 770.50 84.10 768.01 70.64
  Q 767.51 67.99 766.41 65.14
  C 764.83 61.11 760.60 62.49 758.91 65.28
  Q 739.96 96.63 721.13 128.67
  Q 718.00 133.99 713.68 136.23
  Q 711.62 137.29 706.82 137.38
  Q 697.19 137.57 688.96 137.41
  Q 684.98 137.33 683.20 135.21
  Q 682.90 134.85 682.83 134.38
  C 682.22 129.88 683.75 128.23 685.67 125.01
  Q 721.72 64.42 755.72 8.35
  Q 756.73 6.70 758.35 5.03
  C 760.96 2.35 763.21 1.00 767.07 1.01
  Q 778.65 1.05 791.78 1.17
  Z"
/>
<path fill="#cd0102" d="
  M 1020.30 49.92
  Q 1014.75 64.69 1004.39 77.93
  C 986.01 101.42 962.05 119.55 934.34 129.89
  C 926.45 132.83 918.52 135.05 910.37 136.13
  Q 905.61 136.76 899.10 136.76
  Q 893.55 136.76 887.58 136.78
  Q 883.80 136.79 873.43 137.21
  Q 867.65 137.44 859.24 137.21
  C 856.44 137.13 852.43 136.84 851.63 133.56
  C 851.02 131.04 852.15 128.49 853.41 126.30
  C 863.62 108.49 874.05 91.83 884.78 74.02
  Q 902.02 45.41 918.35 18.12
  Q 922.31 11.51 925.48 6.98
  C 927.82 3.63 931.44 0.57 935.80 0.55
  Q 960.12 0.45 984.58 0.51
  C 993.64 0.53 1005.32 2.12 1012.42 8.29
  Q 1022.23 16.82 1023.34 28.13
  Q 1024.40 39.01 1020.30 49.92
  Z
  M 944.39 37.39
  C 932.45 56.53 921.09 75.73 909.35 94.96
  C 907.84 97.43 905.74 102.26 909.26 104.16
  Q 912.00 105.64 914.85 105.45
  Q 928.40 104.55 938.37 99.42
  C 955.40 90.67 969.39 76.55 977.35 58.86
  C 978.83 55.57 979.17 52.05 979.19 48.48
  C 979.25 38.66 972.90 32.38 963.50 31.49
  Q 958.75 31.04 953.98 31.41
  Q 947.83 31.87 944.39 37.39
  Z"
/>
<path fill="#cd0102" d="
  M 165.11 2.11
  C 168.36 3.81 168.65 7.94 167.91 11.25
  Q 165.39 22.61 162.51 34.68
  C 161.36 39.50 160.65 44.41 159.42 49.14
  Q 158.64 52.10 158.04 54.94
  Q 155.87 65.14 153.61 75.92
  C 150.60 90.30 146.97 105.04 143.93 119.98
  C 143.60 121.62 143.00 123.13 142.78 124.80
  Q 142.12 129.96 140.05 133.92
  C 138.38 137.10 134.23 138.32 130.80 138.29
  Q 120.96 138.19 110.56 138.31
  C 104.66 138.38 100.47 135.70 101.88 128.87
  Q 102.60 125.42 102.65 121.26
  C 102.71 116.14 98.53 114.78 93.91 114.76
  Q 78.67 114.67 63.77 114.84
  C 57.91 114.90 53.58 117.17 49.41 121.57
  Q 43.34 127.97 37.25 133.65
  Q 32.16 138.39 25.11 138.63
  Q 16.86 138.90 8.16 138.65
  Q 5.42 138.57 2.90 137.65
  C -0.99 136.23 0.49 131.85 2.69 129.68
  C 9.89 122.57 16.12 115.81 22.96 108.96
  Q 50.83 81.04 79.23 52.64
  C 81.94 49.93 84.47 46.90 87.19 44.22
  Q 105.10 26.54 122.41 8.53
  C 126.09 4.69 130.05 1.18 135.74 0.91
  Q 147.23 0.36 160.37 1.09
  Q 163.49 1.27 165.11 2.11
  Z
  M 112.82 76.30
  Q 114.20 71.48 115.51 66.77
  Q 116.48 63.25 115.82 59.65
  A 1.73 1.73 0.0 0 0 113.56 58.32
  C 111.60 58.98 109.56 60.30 108.16 61.78
  Q 104.62 65.52 100.79 68.32
  Q 98.92 69.68 97.71 71.64
  C 95.62 75.03 90.64 78.02 90.08 82.15
  C 89.24 88.27 100.85 87.19 104.47 86.58
  Q 106.71 86.19 108.38 84.80
  C 111.30 82.36 111.86 79.67 112.82 76.30
  Z"
/>
<path fill="#cd0102" d="
  M 445.46 1.62
  Q 448.94 2.12 449.81 4.52
  Q 450.73 7.06 449.30 9.60
  Q 445.11 17.05 439.95 24.92
  C 436.64 29.97 432.60 31.50 426.75 31.34
  C 421.02 31.18 415.29 31.15 409.59 31.57
  Q 405.85 31.85 401.74 31.70
  C 393.30 31.39 389.34 37.19 386.01 43.88
  Q 384.34 47.23 385.47 50.39
  Q 385.63 50.84 386.01 51.12
  Q 388.90 53.22 392.46 53.25
  Q 400.04 53.32 407.62 53.40
  C 413.50 53.46 416.63 56.64 413.57 62.28
  Q 408.12 72.32 403.17 79.32
  Q 399.44 84.59 393.23 84.64
  C 387.46 84.70 381.52 84.59 375.67 85.04
  Q 371.83 85.35 367.71 85.25
  C 360.15 85.08 356.32 92.20 352.89 97.82
  Q 343.06 113.90 331.84 132.32
  Q 328.23 138.26 319.73 138.59
  Q 311.04 138.93 302.24 138.63
  Q 298.43 138.50 296.10 135.95
  Q 295.74 135.55 295.68 135.02
  Q 295.20 131.31 298.15 126.43
  Q 305.42 114.36 312.50 102.74
  C 324.08 83.71 334.05 66.68 344.89 48.91
  Q 356.91 29.21 369.70 8.01
  Q 371.95 4.26 375.77 2.29
  Q 378.20 1.04 381.20 1.04
  Q 412.92 1.09 444.34 1.05
  A 1.09 1.05 -24.5 0 1 445.07 1.31
  Q 445.17 1.40 445.26 1.51
  Q 445.34 1.61 445.46 1.62
  Z"
/>
<path fill="#ffffff" d="
  M 909.35 94.96
  C 921.09 75.73 932.45 56.53 944.39 37.39
  Q 947.83 31.87 953.98 31.41
  Q 958.75 31.04 963.50 31.49
  C 972.90 32.38 979.25 38.66 979.19 48.48
  C 979.17 52.05 978.83 55.57 977.35 58.86
  C 969.39 76.55 955.40 90.67 938.37 99.42
  Q 928.40 104.55 914.85 105.45
  Q 912.00 105.64 909.26 104.16
  C 905.74 102.26 907.84 97.43 909.35 94.96
  Z"
/>
<path fill="#ffffff" d="
  M 112.82 76.30
  C 111.86 79.67 111.30 82.36 108.38 84.80
  Q 106.71 86.19 104.47 86.58
  C 100.85 87.19 89.24 88.27 90.08 82.15
  C 90.64 78.02 95.62 75.03 97.71 71.64
  Q 98.92 69.68 100.79 68.32
  Q 104.62 65.52 108.16 61.78
  C 109.56 60.30 111.60 58.98 113.56 58.32
  A 1.73 1.73 0.0 0 1 115.82 59.65
  Q 116.48 63.25 115.51 66.77
  Q 114.20 71.48 112.82 76.30
  Z"
/>
</svg>
