<?xml version="1.0" encoding="utf-8"?>
<!-- Generator: Adobe Illustrator 16.0.0, SVG Export Plug-In . SVG Version: 6.00 Build 0)  -->
<!DOCTYPE svg PUBLIC "-//W3C//DTD SVG 1.0//EN" "http://www.w3.org/TR/2001/REC-SVG-20010904/DTD/svg10.dtd">
<svg version="1.0" id="Ebene_1" xmlns="http://www.w3.org/2000/svg" xmlns:xlink="http://www.w3.org/1999/xlink" x="0px" y="0px"
	 width="286.5px" height="172px" viewBox="0 0 286.5 172" enable-background="new 0 0 286.5 172" xml:space="preserve">
<g>
	<defs>
		<rect id="SVGID_1_" x="-159.5" y="-304.89" width="595.276" height="841.89"/>
	</defs>
	<clipPath id="SVGID_2_">
		<use xlink:href="#SVGID_1_"  overflow="visible"/>
	</clipPath>
	<path clip-path="url(#SVGID_2_)" d="M240.377,127.061c-0.012-1.345,0.341-2.408,1.057-3.192c0.717-0.783,1.624-1.175,2.723-1.175
		c1.027,0,1.898,0.37,2.615,1.113c0.716,0.743,1.093,1.827,1.128,3.254H240.377z M246.396,134.077
		c-0.538,0.421-1.2,0.632-1.988,0.632c-1.159,0-2.126-0.407-2.901-1.22c-0.776-0.813-1.183-1.949-1.219-3.411h12.61
		c0.071-3.777-0.711-6.581-2.347-8.411c-1.637-1.83-3.869-2.745-6.699-2.745c-2.52,0-4.604,0.874-6.25,2.622
		c-1.648,1.748-2.473,4.166-2.473,7.253c0,2.585,0.628,4.725,1.881,6.42c1.588,2.117,4.035,3.175,7.344,3.175
		c2.089,0,3.83-0.47,5.221-1.412c1.392-0.94,2.409-2.312,3.054-4.112l-5.015-0.825C247.339,132.978,246.933,133.656,246.396,134.077
		 M219.412,124.087c0.807-0.929,1.807-1.394,3-1.394c1.23,0,2.239,0.471,3.027,1.411c0.788,0.941,1.182,2.482,1.182,4.622
		c0,1.918-0.405,3.359-1.218,4.324c-0.812,0.965-1.797,1.447-2.955,1.447c-1.457,0-2.591-0.644-3.403-1.929
		c-0.562-0.89-0.842-2.327-0.842-4.316C218.203,126.406,218.606,125.017,219.412,124.087 M231.637,112.256h-5.033v9.262
		c-1.552-1.73-3.391-2.596-5.516-2.596c-2.317,0-4.234,0.821-5.75,2.464c-1.517,1.644-2.275,4.043-2.275,7.201
		c0,3.087,0.78,5.493,2.338,7.218c1.558,1.726,3.43,2.587,5.615,2.587c1.075,0,2.14-0.26,3.197-0.779
		c1.057-0.521,1.973-1.313,2.748-2.377v2.735h4.676V112.256z M209.032,133.042h-5.033v4.929h5.033V133.042z M196.566,132.218
		c0-3.169,0.141-5.251,0.421-6.245c0.281-0.994,0.666-1.681,1.156-2.061c0.489-0.38,1.086-0.57,1.791-0.57
		c0.728,0,1.516,0.27,2.364,0.807l1.558-4.298c-1.063-0.619-2.167-0.929-3.313-0.929c-0.812,0-1.537,0.199-2.176,0.596
		c-0.639,0.398-1.358,1.223-2.159,2.474v-2.648h-4.675v18.628h5.033V132.218z M175.127,127.061
		c-0.012-1.345,0.341-2.408,1.058-3.192c0.716-0.783,1.623-1.175,2.722-1.175c1.027,0,1.899,0.37,2.615,1.113
		c0.717,0.743,1.093,1.827,1.129,3.254H175.127z M181.146,134.077c-0.537,0.421-1.2,0.632-1.988,0.632
		c-1.158,0-2.126-0.407-2.901-1.22c-0.776-0.813-1.183-1.949-1.219-3.411h12.61c0.071-3.777-0.711-6.581-2.347-8.411
		c-1.637-1.83-3.868-2.745-6.698-2.745c-2.521,0-4.604,0.874-6.251,2.622c-1.648,1.748-2.473,4.166-2.473,7.253
		c0,2.585,0.628,4.725,1.882,6.42c1.588,2.117,4.036,3.175,7.343,3.175c2.09,0,3.83-0.47,5.221-1.412
		c1.392-0.94,2.409-2.312,3.054-4.112l-5.015-0.825C182.089,132.978,181.683,133.656,181.146,134.077 M145.61,123.219h2.794v14.752
		h5.033v-14.752h6.287v14.752h5.032v-14.752h3.762v-3.876h-3.762v-1.315c0-0.947,0.158-1.587,0.475-1.921
		c0.316-0.333,0.839-0.5,1.567-0.5c0.74,0,1.511,0.094,2.311,0.281l0.68-3.438c-1.373-0.421-2.775-0.632-4.209-0.632
		c-1.396,0-2.552,0.243-3.465,0.728c-0.914,0.486-1.541,1.114-1.881,1.886c-0.34,0.772-0.51,1.941-0.51,3.508v1.404h-6.287v-1.315
		c0-0.947,0.158-1.587,0.474-1.921c0.317-0.333,0.839-0.5,1.568-0.5c0.74,0,1.51,0.094,2.31,0.281l0.682-3.438
		c-1.374-0.421-2.776-0.632-4.209-0.632c-1.397,0-2.554,0.243-3.467,0.728c-0.913,0.486-1.539,1.114-1.881,1.886
		c-0.34,0.772-0.51,1.941-0.51,3.508v1.404h-2.794V123.219z M130.744,124.412c0.896-0.982,1.999-1.475,3.313-1.475
		c1.313,0,2.415,0.492,3.305,1.475c0.89,0.981,1.334,2.386,1.334,4.21c0,1.871-0.444,3.298-1.334,4.28
		c-0.89,0.981-1.992,1.473-3.305,1.473c-1.314,0-2.418-0.491-3.313-1.473c-0.896-0.982-1.344-2.397-1.344-4.245
		C129.4,126.809,129.849,125.394,130.744,124.412 M125.479,133.84c0.824,1.491,2.026,2.623,3.609,3.395
		c1.582,0.771,3.244,1.157,4.988,1.157c2.818,0,5.155-0.926,7.013-2.779c1.856-1.854,2.784-4.189,2.784-7.009
		c0-2.795-0.919-5.106-2.758-6.937s-4.196-2.745-7.075-2.745c-1.863,0-3.549,0.403-5.06,1.21c-1.51,0.807-2.677,1.976-3.501,3.508
		c-0.824,1.532-1.236,3.117-1.236,4.754C124.242,130.534,124.654,132.349,125.479,133.84 M109.859,137.971v-5.964l2.347-2.403
		l4.782,8.367h5.427l-6.967-11.822l6.501-6.806h-6.197l-5.893,6.561v-13.647h-5.033v25.715H109.859z M101.621,137.971v-4.332H93.83
		c-0.334,0-1.2,0.041-2.597,0.122l2.561-2.719l7.272-8.209v-3.49H85.339v4.087l6.717-0.035c0.955-0.012,1.725-0.035,2.31-0.07
		c-0.561,0.55-1.427,1.479-2.597,2.789l-7.128,8.017v3.841H101.621z M81.506,119.343h-5.033v18.629h5.033V119.343z M81.506,112.256
		h-5.033v4.561h5.033V112.256z M59.853,127.061c-0.012-1.345,0.34-2.408,1.057-3.192c0.716-0.783,1.623-1.175,2.722-1.175
		c1.027,0,1.899,0.37,2.615,1.113c0.716,0.743,1.093,1.827,1.128,3.254H59.853z M65.871,134.077c-0.537,0.421-1.2,0.632-1.988,0.632
		c-1.159,0-2.126-0.407-2.902-1.22s-1.182-1.949-1.218-3.411h12.61c0.071-3.777-0.711-6.581-2.347-8.411
		c-1.636-1.83-3.869-2.745-6.698-2.745c-2.52,0-4.604,0.874-6.251,2.622c-1.648,1.748-2.472,4.166-2.472,7.253
		c0,2.585,0.627,4.725,1.881,6.42c1.587,2.117,4.035,3.175,7.343,3.175c2.089,0,3.83-0.47,5.221-1.412
		c1.391-0.94,2.409-2.312,3.054-4.112l-5.015-0.825C66.813,132.978,66.407,133.656,65.871,134.077 M33.648,112.256v25.715h5.033
		v-9.332c0-1.566,0.152-2.751,0.457-3.552c0.304-0.801,0.785-1.4,1.442-1.798c0.656-0.397,1.403-0.596,2.238-0.596
		c0.729,0,1.335,0.154,1.818,0.465c0.484,0.31,0.821,0.728,1.012,1.254c0.191,0.525,0.287,1.766,0.287,3.719v9.84h5.033v-10.928
		c0-1.672-0.087-2.906-0.26-3.701c-0.173-0.795-0.495-1.52-0.967-2.175c-0.472-0.655-1.173-1.193-2.105-1.614
		c-0.931-0.421-1.976-0.631-3.134-0.631c-2.257,0-4.197,0.929-5.821,2.789v-9.455H33.648z"/>
</g>
<line fill="#E6007E" x1="4.735" y1="105.201" x2="253.05" y2="105.201"/>
<rect x="4.735" y="103.701" fill="#E6007E" width="248.314" height="3"/>
<line fill="#E6007E" x1="33.344" y1="145.848" x2="283.5" y2="145.848"/>
<rect x="33.344" y="144.348" fill="#E6007E" width="250.156" height="3"/>
<line fill="#E6007E" x1="258.464" y1="105.201" x2="271.192" y2="105.201"/>
<rect x="258.464" y="103.701" fill="#E6007E" width="12.729" height="3"/>
<polygon fill="#E6007E" points="27.866,144.153 23.895,144.153 23.895,140.183 20.895,140.183 20.895,144.153 16.924,144.153 
	16.924,147.153 20.895,147.153 20.895,151.125 23.895,151.125 23.895,147.153 27.866,147.153 "/>
<g>
	<defs>
		<rect id="SVGID_3_" x="-161.5" y="-284.89" width="595.276" height="841.89"/>
	</defs>
	<clipPath id="SVGID_4_">
		<use xlink:href="#SVGID_3_"  overflow="visible"/>
	</clipPath>
</g>
<g>
	<defs>
		<rect id="SVGID_5_" x="-160.167" y="-199.723" width="595.276" height="841.89"/>
	</defs>
	<clipPath id="SVGID_6_">
		<use xlink:href="#SVGID_5_"  overflow="visible"/>
	</clipPath>
</g>
<g>
	<path d="M183.102,55.636c0,0,5.398,2.942,9.563,5.831c3.19,2.211,5.646,4.472,8.021,6.741c2.373,2.276,5.153,4.592,7.201,6.685
		c2.05,2.09,3.445,3.847,3.945,4.649c0.5,0.8,0.725,1.273,0.735,1.5c0.011,0.228-0.113,0.823-0.734,0.99
		c-1.43,0.383-4.556,0.658-7.055,0.543c-2.496-0.115-8.405-0.584-12.767-1.608c-4.361-1.02-13.968-4.811-19.396-7.231
		c-5.432-2.425-19.786-10.185-19.786-10.185L104.894,75.07L44.902,90.014c0,0-1.141,0.178-1.602,0.178
		c-0.458,0.003-1.629-0.423-2.834-1.149c-1.207-0.729-6.627-3.895-7.14-4.251c-0.513-0.354-0.664-0.445-0.69-0.621
		c-0.026-0.181,0.415-0.458,0.983-0.622c0.566-0.167,102.122-28.799,102.122-28.799l-24.648-11.447c0,0-0.696,0.078-1.08,0.011
		c-0.382-0.065-0.888-0.471-1.091-0.714c-0.204-0.249-0.225-0.699-0.302-0.834c-0.079-0.133-3.853-2.38-4.873-3.138
		c-1.021-0.757-3.977-3.167-3.977-3.167s-8.002,1.101-9.705,1.17c-1.704,0.071-6.68,0.745-7.644,0.743
		c-0.964-0.001-3.113-0.451-4.622-1.181c-0.523-0.253-1.056-0.478-1.434-0.83c-0.075-0.07,0.126-0.277,0.83-0.393
		c0.511-0.084,11.876-2.39,15.377-2.971c3.5-0.577,7.014-1.191,7.496-1.215c0.485-0.026,0.625-0.048,0.623-0.349
		c-0.003-0.299-0.583-0.659-0.981-1.451c-0.397-0.791-0.174-2.267,0.152-3.394c0.327-1.128,5.482-19.418,5.482-19.418
		s0.331-1.188,0.437-1.327c0.105-0.14,0.374-0.285,0.683-0.176c0.31,0.106,3.384,1.18,4.449,1.718
		c1.066,0.538,2.33,1.396,2.838,1.774c0.511,0.379,0.441,2.343,0.428,2.468c-0.014,0.123,0.338,18.157,0.338,18.157
		s5.088-0.659,6.619-0.797c1.527-0.139,1.974-0.466,3.051-0.241c1.076,0.226,3.228,1.016,3.75,1.297
		c0.52,0.278,0.919,0.395,0.965,0.625c0.042,0.229-0.128,0.4-0.756,0.557c-0.628,0.158-13.422,2.777-13.422,2.777
		s-0.166,0.919-0.087,1.49c0.077,0.57-0.031,0.935,0.256,1.15c0.287,0.22,0.87,0.543,1.297,0.738
		c0.426,0.196,42.849,12.436,42.849,12.436s1.105,0.391,1.521,0.386c0.411-0.005,1.786-0.211,2.32-0.277
		c0.535-0.069,27.648-5.871,46.765-9.747c19.117-3.874,26.435-5.449,29.102-5.966c2.671-0.516,3.004-0.632,4.327-0.592
		c1.326,0.041,4.341,0.561,5.916,0.875c1.57,0.315,3.033,0.997,3.6,1.279c0.565,0.286,0.696,0.574,0.688,0.648
		c-0.01,0.076-0.724,0.348-1.104,0.483c-0.384,0.133-15.339,4.548-32.069,9.274c-16.729,4.728-29.454,8.326-31.981,9.146
		C185.595,55.148,183.102,55.636,183.102,55.636z"/>
	<path fill="#FFFFFF" d="M200.101,68.544c0,0-3.3,1.281-4.702,1.978c-1.404,0.703-3.581,1.771-3.808,1.746
		c-0.227-0.021-3.539-1.221-6.971-2.583c-3.432-1.362-15.215-6.156-15.601-6.394c-0.387-0.244-1.037-4.508-1.191-5.224
		c-0.153-0.714-0.17-4.013,0.028-4.594c0.198-0.579,0.793-1.864,1.081-1.984c0.287-0.118,1.229,0.082,2.343,0.396
		c1.113,0.317,3.631,0.787,5.421,1.624c1.791,0.837,3.63,1.463,5.672,2.498c9.466,4.798,14.054,9.33,14.773,9.906
		C197.863,66.487,200.101,68.544,200.101,68.544z"/>
	<path fill="#FFFFFF" d="M196.647,77.511c0,0-3.839-0.805-15.64-5.314c-8.826-3.373-22.625-9.779-22.625-9.779l1.55-0.422
		c0,0,8.978,4.3,22.407,9.746C195.358,77.021,196.647,77.511,196.647,77.511z"/>
	<path fill="#FFFFFF" d="M140.05,53.682c0,0-16.735-7.365-23.83-10.513c-7.094-3.15-15.041-7.784-15.041-7.784
		s7.906,4.134,15.741,7.433c7.838,3.302,24.277,10.552,24.277,10.552L140.05,53.682z"/>
	
		<line fill="#FFFFFF" stroke="#FFFFFF" stroke-width="0.2" stroke-linecap="round" stroke-miterlimit="10" x1="46.55" y1="82.187" x2="43.84" y2="80.384"/>
	
		<line fill="#FFFFFF" stroke="#FFFFFF" stroke-width="0.2" stroke-linecap="round" stroke-miterlimit="10" x1="95.437" y1="68.406" x2="92.773" y2="66.633"/>
	
		<line fill="#FFFFFF" stroke="#FFFFFF" stroke-width="0.2" stroke-linecap="round" stroke-miterlimit="10" x1="114.2" y1="11.104" x2="109.688" y2="9.345"/>
	
		<line fill="#FFFFFF" stroke="#FFFFFF" stroke-width="0.1" stroke-linecap="round" stroke-miterlimit="10" x1="81.724" y1="35.599" x2="79.144" y2="34.588"/>
	
		<line fill="#FFFFFF" stroke="#FFFFFF" stroke-width="0.1" stroke-linecap="round" stroke-miterlimit="10" x1="124.423" y1="28.658" x2="121.884" y2="27.694"/>
	
		<line fill="#FFFFFF" stroke="#FFFFFF" stroke-width="0.15" stroke-linecap="round" stroke-miterlimit="10" x1="237.64" y1="34.51" x2="235.09" y2="33.855"/>
	
		<line fill="#FFFFFF" stroke="#FFFFFF" stroke-width="0.15" stroke-linecap="round" stroke-miterlimit="10" x1="205.824" y1="41.236" x2="203.093" y2="40.396"/>
</g>
<g>
	<path d="M33.45,166.474V154.01h6.145c1.528,0,2.581,0.265,3.159,0.795c0.579,0.529,0.868,1.488,0.868,2.876
		c0,1.26-0.145,2.121-0.434,2.584c-0.29,0.463-0.881,0.782-1.776,0.959v0.082c1.382,0.085,2.073,0.892,2.073,2.42v2.748H41.12V164.2
		c0-1.284-0.633-1.927-1.899-1.927h-3.406v4.2H33.45z M35.814,160.283h3.397c0.81,0,1.347-0.145,1.611-0.434
		c0.265-0.289,0.397-0.869,0.397-1.74c0-0.889-0.114-1.462-0.343-1.721c-0.228-0.259-0.729-0.388-1.502-0.388h-3.561V160.283z"/>
	<path d="M53.2,162.027h2.374v0.429c0,1.734-0.316,2.856-0.95,3.364c-0.633,0.509-2.033,0.763-4.2,0.763
		c-2.459,0-3.972-0.401-4.538-1.205c-0.566-0.804-0.849-2.952-0.849-6.446c0-2.058,0.384-3.41,1.151-4.059
		c0.767-0.648,2.371-0.973,4.812-0.973c1.777,0,2.964,0.267,3.561,0.799c0.597,0.533,0.895,1.591,0.895,3.173l0.009,0.283H53.09
		v-0.319c0-0.815-0.154-1.338-0.461-1.566c-0.307-0.228-1.009-0.342-2.104-0.342c-1.467,0-2.348,0.18-2.644,0.538
		c-0.295,0.359-0.443,1.425-0.443,3.196c0,2.386,0.133,3.798,0.397,4.236s1.122,0.657,2.57,0.657c1.175,0,1.937-0.121,2.287-0.365
		c0.35-0.243,0.525-0.778,0.525-1.606L53.2,162.027z"/>
	<path d="M55.966,160.657h4.173v1.99h-4.173V160.657z"/>
	<path d="M70.43,154.01v1.981l-6.885,8.419v0.073h6.967v1.99H60.55v-2.018l6.83-8.383v-0.072h-6.528v-1.991H70.43z"/>
	<path d="M79.707,157.744v8.729h-2.091l0.119-1.497l-0.037-0.01c-0.408,1.071-1.345,1.607-2.812,1.607
		c-1.979,0-2.968-0.989-2.968-2.968v-5.862h2.091v5.36c0,0.742,0.103,1.231,0.31,1.466s0.636,0.351,1.288,0.351
		c1.339,0,2.009-0.803,2.009-2.41v-4.767H79.707z"/>
	<path d="M81.825,166.474V154.01h2.091v4.985l0.046,0.019c0.359-0.919,1.269-1.379,2.73-1.379c1.254,0,2.114,0.306,2.58,0.918
		c0.466,0.611,0.699,1.745,0.699,3.401c0,1.808-0.236,3.029-0.708,3.666c-0.472,0.636-1.377,0.954-2.716,0.954
		c-1.357,0-2.25-0.493-2.675-1.479h-0.046l0.091,1.379H81.825z M85.98,159.288c-1.358,0-2.036,0.843-2.036,2.529
		c0,1.32,0.115,2.168,0.347,2.542c0.231,0.375,0.755,0.562,1.57,0.562c0.853,0,1.397-0.172,1.635-0.516s0.356-1.131,0.356-2.36
		c0-1.145-0.117-1.89-0.352-2.237C87.266,159.461,86.759,159.288,85.98,159.288z"/>
	<path d="M97.338,163.68h2.1v0.338c0,1.704-1.278,2.557-3.835,2.557c-1.735,0-2.87-0.295-3.406-0.886s-0.803-1.842-0.803-3.753
		c0-1.698,0.28-2.84,0.84-3.424c0.56-0.585,1.653-0.877,3.278-0.877c1.559,0,2.603,0.285,3.132,0.854
		c0.53,0.569,0.794,1.688,0.794,3.356v0.639h-5.908c-0.012,0.195-0.018,0.323-0.018,0.384c0,0.858,0.132,1.431,0.397,1.717
		c0.265,0.286,0.793,0.429,1.584,0.429c0.767,0,1.266-0.084,1.498-0.251C97.223,164.595,97.338,164.233,97.338,163.68z
		 M97.357,161.205l-0.009-0.347c0-0.694-0.12-1.145-0.361-1.352c-0.24-0.207-0.762-0.311-1.566-0.311
		c-0.779,0-1.286,0.125-1.52,0.374c-0.234,0.25-0.352,0.795-0.352,1.635H97.357z"/>
	<path d="M103.273,154.01v5.178l0.046,0.009c0.39-1.035,1.284-1.552,2.685-1.552c2.039,0,3.059,0.965,3.059,2.894v5.936h-2.091
		v-5.359v-0.283c0-1.023-0.521-1.534-1.562-1.534c-1.424,0-2.137,0.739-2.137,2.219v4.958h-2.091V154.01H103.273z"/>
	<path d="M114.952,157.645c1.686,0,2.791,0.269,3.314,0.808s0.785,1.676,0.785,3.41c0,1.936-0.255,3.205-0.767,3.808
		c-0.512,0.603-1.589,0.904-3.232,0.904c-1.784,0-2.939-0.28-3.465-0.84c-0.526-0.561-0.79-1.793-0.79-3.698
		c0-1.832,0.258-3.022,0.776-3.57S113.217,157.645,114.952,157.645z M114.012,154.777v1.461h-1.616v-1.461H114.012z
		 M114.934,159.297c-0.871,0-1.424,0.156-1.662,0.47c-0.237,0.314-0.356,1.046-0.356,2.196c0,1.314,0.113,2.137,0.338,2.466
		c0.225,0.328,0.788,0.492,1.689,0.492c0.871,0,1.42-0.173,1.648-0.52c0.228-0.348,0.342-1.182,0.342-2.502
		c0-1.114-0.119-1.826-0.356-2.137S115.792,159.297,114.934,159.297z M117.454,154.777v1.461h-1.616v-1.461H117.454z"/>
	<path d="M120.851,157.744h2.091l-0.128,1.224l0.045,0.01c0.499-0.913,1.285-1.37,2.356-1.37c1.534,0,2.301,0.968,2.301,2.903v0.612
		h-1.972c0.024-0.237,0.037-0.393,0.037-0.466c0-0.932-0.362-1.397-1.086-1.397c-1.035,0-1.552,0.691-1.552,2.073v5.141h-2.091
		V157.744z"/>
	<path d="M140.627,157.744l-2.5,8.729h-3.27l-2.63-8.729h2.219l1.15,4.027c0.158,0.56,0.305,1.102,0.438,1.625l0.21,0.813
		l0.21,0.813h0.046l0.191-0.813l0.192-0.804c0.146-0.608,0.283-1.15,0.41-1.625l1.078-4.036H140.627z"/>
	<path d="M145.403,157.645c1.686,0,2.79,0.269,3.314,0.808c0.523,0.539,0.785,1.676,0.785,3.41c0,1.936-0.256,3.205-0.768,3.808
		c-0.511,0.603-1.589,0.904-3.232,0.904c-1.783,0-2.938-0.28-3.465-0.84c-0.526-0.561-0.79-1.793-0.79-3.698
		c0-1.832,0.259-3.022,0.776-3.57S143.668,157.645,145.403,157.645z M145.385,159.297c-0.871,0-1.425,0.156-1.662,0.47
		c-0.237,0.314-0.356,1.046-0.356,2.196c0,1.314,0.113,2.137,0.338,2.466c0.226,0.328,0.789,0.492,1.689,0.492
		c0.871,0,1.42-0.173,1.648-0.52c0.229-0.348,0.343-1.182,0.343-2.502c0-1.114-0.119-1.826-0.356-2.137
		S146.243,159.297,145.385,159.297z"/>
	<path d="M151.247,157.744h2.091l-0.055,1.343l0.045,0.009c0.427-0.968,1.315-1.451,2.667-1.451c1.576,0,2.452,0.538,2.629,1.615
		h0.037c0.407-1.077,1.306-1.615,2.693-1.615c2.021,0,3.031,1.017,3.031,3.049v5.78h-2.091v-5.323c0-1.235-0.508-1.854-1.524-1.854
		c-1.272,0-1.909,0.69-1.909,2.072v5.104h-2.091v-5.405c0-0.725-0.096-1.201-0.287-1.429c-0.192-0.229-0.599-0.343-1.219-0.343
		c-1.285,0-1.927,0.706-1.927,2.118v5.059h-2.091V157.744z"/>
	<path d="M173.627,156.001v3.359h5.588v1.991h-5.588v5.122h-2.365V154.01h8.254v1.991H173.627z"/>
	<path d="M183.068,160.273h-2.137c0-1.047,0.243-1.747,0.73-2.1c0.487-0.354,1.452-0.529,2.895-0.529
		c1.57,0,2.633,0.216,3.187,0.647c0.554,0.433,0.831,1.258,0.831,2.475v5.707h-2.091l0.101-1.196l-0.055-0.009
		c-0.402,0.87-1.331,1.306-2.785,1.306c-2.112,0-3.169-0.898-3.169-2.693c0-1.814,1.081-2.722,3.242-2.722
		c1.442,0,2.318,0.332,2.629,0.995h0.037v-1.415c0-0.682-0.119-1.134-0.356-1.355c-0.237-0.223-0.725-0.334-1.461-0.334
		C183.601,159.05,183.068,159.458,183.068,160.273z M184.465,162.565c-1.181,0-1.771,0.408-1.771,1.224
		c0,0.566,0.122,0.938,0.366,1.114c0.243,0.177,0.754,0.265,1.533,0.265c1.272,0,1.908-0.43,1.908-1.287
		C186.501,163.004,185.822,162.565,184.465,162.565z"/>
	<path d="M196.217,163.141h2.081v0.302l-0.127,1.324c-0.256,1.205-1.504,1.808-3.744,1.808c-1.644,0-2.736-0.297-3.278-0.891
		c-0.541-0.594-0.813-1.788-0.813-3.584c0-1.753,0.271-2.934,0.813-3.542c0.542-0.609,1.595-0.913,3.16-0.913
		c1.509,0,2.532,0.221,3.067,0.661c0.536,0.441,0.804,1.28,0.804,2.516h-2.072c0-1.017-0.588-1.524-1.763-1.524
		c-0.834,0-1.357,0.161-1.57,0.483c-0.214,0.323-0.32,1.114-0.32,2.374c0,1.218,0.117,1.983,0.352,2.297s0.809,0.47,1.722,0.47
		c0.718,0,1.18-0.107,1.383-0.323C196.114,164.381,196.217,163.896,196.217,163.141z"/>
	<path d="M201.924,154.01v5.178l0.045,0.009c0.39-1.035,1.285-1.552,2.685-1.552c2.039,0,3.06,0.965,3.06,2.894v5.936h-2.092v-5.359
		v-0.283c0-1.023-0.52-1.534-1.561-1.534c-1.425,0-2.137,0.739-2.137,2.219v4.958h-2.091V154.01H201.924z"/>
	<path d="M209.768,157.744h2.091l-0.055,1.343l0.045,0.009c0.427-0.968,1.315-1.451,2.667-1.451c1.576,0,2.452,0.538,2.629,1.615
		h0.037c0.407-1.077,1.306-1.615,2.693-1.615c2.021,0,3.031,1.017,3.031,3.049v5.78h-2.091v-5.323c0-1.235-0.508-1.854-1.524-1.854
		c-1.272,0-1.909,0.69-1.909,2.072v5.104h-2.091v-5.405c0-0.725-0.096-1.201-0.287-1.429c-0.192-0.229-0.599-0.343-1.219-0.343
		c-1.285,0-1.927,0.706-1.927,2.118v5.059h-2.091V157.744z"/>
	<path d="M227.217,160.273h-2.137c0-1.047,0.243-1.747,0.73-2.1c0.487-0.354,1.452-0.529,2.895-0.529
		c1.57,0,2.633,0.216,3.187,0.647c0.554,0.433,0.831,1.258,0.831,2.475v5.707h-2.091l0.101-1.196l-0.055-0.009
		c-0.402,0.87-1.331,1.306-2.785,1.306c-2.112,0-3.169-0.898-3.169-2.693c0-1.814,1.081-2.722,3.242-2.722
		c1.442,0,2.318,0.332,2.629,0.995h0.037v-1.415c0-0.682-0.119-1.134-0.356-1.355c-0.237-0.223-0.725-0.334-1.461-0.334
		C227.749,159.05,227.217,159.458,227.217,160.273z M228.613,162.565c-1.181,0-1.771,0.408-1.771,1.224
		c0,0.566,0.122,0.938,0.366,1.114c0.243,0.177,0.754,0.265,1.533,0.265c1.272,0,1.908-0.43,1.908-1.287
		C230.649,163.004,229.971,162.565,228.613,162.565z"/>
	<path d="M234.805,157.744h2.072l-0.082,1.471l0.046,0.009c0.407-1.053,1.32-1.579,2.739-1.579c2.063,0,3.095,0.962,3.095,2.885
		v5.944h-2.091v-5.26v-0.328l-0.046-0.612c-0.097-0.651-0.608-0.977-1.533-0.977c-1.406,0-2.109,0.666-2.109,2v5.177h-2.091V157.744
		z"/>
	<path d="M244.721,157.744h2.072l-0.082,1.471l0.046,0.009c0.407-1.053,1.32-1.579,2.739-1.579c2.063,0,3.095,0.962,3.095,2.885
		v5.944H250.5v-5.26v-0.328l-0.046-0.612c-0.097-0.651-0.608-0.977-1.533-0.977c-1.406,0-2.109,0.666-2.109,2v5.177h-2.091V157.744z
		"/>
</g>
</svg>
