<?xml version="1.0" encoding="utf-8"?>
<!-- Generator: Adobe Illustrator 27.2.0, SVG Export Plug-In . SVG Version: 6.00 Build 0)  -->
<svg version="1.1" id="QS_x5F_Logo" xmlns="http://www.w3.org/2000/svg" xmlns:xlink="http://www.w3.org/1999/xlink" x="0px"
	 y="0px" viewBox="0 0 1316.2 304" style="enable-background:new 0 0 1316.2 304;" xml:space="preserve">
<style type="text/css">
	.st0{fill:#010202;}
</style>
<g>
	<path class="st0" d="M1091.1,100.4c0,8.1-7.7,14.6-17.2,14.6h-59.5c-10.8,0-17.2-7.4-17.2-14.6v-82h-29.5v82.2
		c0,11,4.9,21.2,13.9,28.8c8.8,7.5,20.5,11.6,32.9,11.6h59.3c25.7,0,46.6-18.2,46.6-40.5V18.4h-29.5V100.4z"/>
	<path class="st0" d="M214.6,129.4c8.8,7.5,20.5,11.6,32.9,11.6h59.3c25.7,0,46.6-18.2,46.6-40.5V18.4h-29.5v82
		c0,8.1-7.7,14.6-17.2,14.6h-59.5c-10.8,0-17.2-7.4-17.2-14.6v-82h-29.5v82.2C200.7,111.6,205.6,121.8,214.6,129.4z"/>
	<polygon class="st0" points="544.8,58.5 642.2,140.8 642.9,141.4 667.1,141.4 667.1,18.5 639.5,18.4 639.5,101.9 542,18.9 
		541.5,18.5 517.1,18.5 517.1,141.4 544.8,141.4 	"/>
	<polygon class="st0" points="810.8,232.5 912.2,232.5 912.2,207 810.8,207 810.8,185.5 932.8,185.5 932.8,160 781.7,160 
		781.8,281.1 781.8,282.9 932.7,282.9 932.8,256 810.8,256 	"/>
	<polygon class="st0" points="1167.3,63.6 1206.2,108.4 1224.9,108.4 1263.8,63.6 1263.8,141.3 1291.5,141.3 1291.5,18.5 
		1268.6,18.5 1215.7,79.4 1163.2,19.1 1162.7,18.5 1139.7,18.5 1139.7,141.3 1167.3,141.3 	"/>
	<polygon class="st0" points="1037.3,221 984.9,160.7 984.3,160 961.3,160 961.3,282.9 989,282.9 989,205.2 1027.8,250 1046.6,250 
		1085.5,205.2 1085.5,282.9 1113.1,282.9 1113.1,160 1090.3,160 	"/>
	<polygon class="st0" points="568.3,185.2 650.2,185.2 650.2,282.6 680.3,282.6 680.3,185.2 762.3,185.2 762.3,159.7 568.3,159.7 	
		"/>
	<polygon class="st0" points="782.6,141.3 810.6,141.3 810.6,20.2 810.6,18.4 696.3,18.5 695,18.5 678,44.9 782.6,44.9 	"/>
	<path class="st0" d="M128.4,159.7H63.5c-10.9,0-21.2,3.9-29,10.9c-7.9,7.1-12.2,16.4-12.2,26.4c0,9.6,4.3,19.1,11.8,25.9l0.9,0.8
		c7.3,6.5,18,10.4,28.6,10.4h64.9c7,0,12.7,5,12.7,11.1c0,6.3-5.7,11.3-12.9,11.3H63.5c-7,0-12.7-5-12.7-11.1v-2.5H22.2v2.5
		c0,20.5,18.6,37.2,41.5,37.2h64.7c22.8,0,41.3-16.7,41.3-37.2c0-9.9-4.4-19.3-12.2-26.4c-7.8-7.1-18.1-10.9-29-10.9H63.5
		c-7,0-12.7-5-12.7-11.1c0-6,5.9-11.1,12.9-11.1h64.7c6.9,0,12.6,4.9,12.9,11.2l0.1,2.4h28.3v-2.5
		C169.7,176.4,151.2,159.7,128.4,159.7z"/>
	<path class="st0" d="M504.1,159.7h-64.9c-10.9,0-21.2,3.9-29,10.9c-7.9,7.1-12.2,16.4-12.2,26.4c0,9.6,4.3,19.1,11.8,25.9l0.9,0.8
		c7.3,6.5,18,10.4,28.6,10.4h64.9c7,0,12.7,5,12.7,11.1c0,6.3-5.7,11.3-12.9,11.3h-64.7c-7,0-12.7-5-12.7-11.1v-2.5h-28.6v2.5
		c0,20.5,18.6,37.2,41.5,37.2h64.7c22.8,0,41.3-16.7,41.3-37.2c0-9.9-4.3-19.3-12.2-26.4c-7.8-7.1-18.1-10.9-29-10.9h-64.9
		c-7,0-12.7-5-12.7-11.1c0-6,5.9-11.1,12.9-11.1h64.7c6.9,0,12.6,4.9,12.9,11.2l0.1,2.4h28.3v-2.5
		C545.4,176.4,526.9,159.7,504.1,159.7z"/>
	<path class="st0" d="M1181.3,185.8h68.7c7.4,0,13.5,4.9,13.8,11.2l0.1,2.4h29.7v-2.5c0-20.5-19.6-37.2-43.7-37.2h-68.9
		c-11.5,0-22.4,3.8-30.7,10.8c-8.4,7.1-13,16.4-13,26.4c0,9.6,4.5,19.1,12.5,26l1,0.8c7.7,6.5,19,10.4,30.2,10.4h68.9
		c7.5,0,13.6,5,13.6,11.1c0,6.3-6.1,11.3-13.8,11.3h-68.7c-7.5,0-13.6-5-13.6-11.1v-2.5h-30v2.5c0,20.5,19.7,37.2,43.9,37.2h68.7
		c24.1,0,43.7-16.7,43.7-37.2c0-10-4.6-19.4-13-26.5c-8.3-7-19.2-10.9-30.7-10.9h-68.9c-7.5,0-13.6-5-13.6-11.1
		C1167.5,190.9,1173.8,185.8,1181.3,185.8z"/>
	<polygon class="st0" points="282.8,206.9 222.6,159.7 177.4,159.7 268.5,231.2 268.5,282.6 297.3,282.6 297.3,231 388.4,159.7 
		343,159.7 	"/>
	<polygon class="st0" points="824.3,18.4 824.2,139.5 824.2,141.3 852.3,141.3 852.3,44.9 956.9,44.9 939.9,18.5 	"/>
	<polygon class="st0" points="434.5,81.2 467.5,81.2 503.9,18.8 467.1,18.8 432.6,78 399.6,78 363.2,140.4 400,140.4 	"/>
	<path class="st0" d="M86.4,141h28.4c11.4,0,23-3.1,33-8.8l18.5,12.1l15.1-21l-13.9-9.2c8.1-11,11.6-21.4,11.8-34.4l0,0
		c0.2-15.5-6.1-30.4-17.6-42.1c-12.4-12.5-29.1-19.4-46.8-19.4H86.6c-35.5,0-64.5,27.6-64.5,61.5C22.1,113.5,50.9,141,86.4,141z
		 M60.2,53.9c7.1-6.5,16.7-10.2,26.3-10.2h28.2c9.7,0,19.3,3.8,26.4,10.3c7.4,6.8,11.4,15.9,11.4,25.5c0,7.2-2.6,14.6-7.1,20
		l-18.3-11.9l-16.3,19.8l9.2,6c-3.2,1.2-6.8,1.8-10.5,1.8H86.9c-10.5,0-20.3-3.9-27.5-11c-6.8-6.7-10.7-15.6-10.7-24.6
		C48.7,69.9,52.8,60.7,60.2,53.9z"/>
</g>
</svg>
