<?xml version="1.0" encoding="UTF-8"?>
<svg xmlns="http://www.w3.org/2000/svg" xmlns:xlink="http://www.w3.org/1999/xlink" width="100.9424pt" height="46.88109pt" viewBox="0 0 100.9424 46.88109" version="1.1">
<defs>
<clipPath id="clip1">
  <path d="M 60 0 L 100.941406 0 L 100.941406 41 L 60 41 Z M 60 0 "/>
</clipPath>
</defs>
<g id="surface1">
<path style=" stroke:none;fill-rule:evenodd;fill:rgb(100%,100%,100%);fill-opacity:1;" d="M 1.480469 41.941406 L 9.28125 34.140625 L 7.148438 32.007812 L 5.230469 29.511719 L 4.023438 26.601562 L 3.613281 23.476562 L 4.023438 20.355469 L 5.230469 17.449219 L 7.148438 14.953125 L 9.644531 13.03125 L 12.554688 11.828125 L 15.675781 11.417969 L 18.796875 11.828125 L 21.707031 13.03125 L 24.207031 14.953125 L 26.339844 17.082031 L 28.46875 14.953125 L 30.640625 13.230469 L 33.144531 12.046875 L 35.851562 11.472656 L 38.621094 11.527344 L 41.300781 12.210938 L 43.558594 13.359375 L 45.527344 14.953125 L 47.121094 16.917969 L 48.269531 19.179688 L 48.953125 21.859375 L 49.007812 24.628906 L 48.429688 27.335938 L 47.25 29.839844 L 45.527344 32.007812 L 44.710938 32.828125 L 43.398438 34.140625 L 48.226562 38.972656 L 50.261719 40.449219 L 52.65625 41.230469 L 55.171875 41.230469 L 57.5625 40.449219 L 59.597656 38.972656 L 60.734375 40.679688 L 62.441406 41.816406 L 59.945312 43.730469 L 57.035156 44.9375 L 53.914062 45.347656 L 50.789062 44.9375 L 47.882812 43.730469 L 45.382812 41.816406 L 40.554688 36.984375 L 39.132812 38.40625 L 35.964844 40.929688 L 32.3125 42.691406 L 28.363281 43.59375 L 24.3125 43.59375 L 20.363281 42.691406 L 16.710938 40.929688 L 13.542969 38.40625 L 12.121094 36.984375 L 4.324219 44.78125 L 3.21875 45.347656 L 1.992188 45.152344 L 1.113281 44.273438 L 0.917969 43.046875 L 1.480469 41.941406 M 9.988281 29.164062 L 12.121094 31.296875 L 23.496094 19.925781 L 21.363281 17.792969 L 19.328125 16.316406 L 16.933594 15.539062 L 14.417969 15.539062 L 12.027344 16.316406 L 9.988281 17.792969 L 8.511719 19.828125 L 7.734375 22.222656 L 7.734375 24.738281 L 8.511719 27.128906 L 9.988281 29.164062 M 16.386719 35.5625 L 18.851562 37.527344 L 21.691406 38.894531 L 24.761719 39.597656 L 27.914062 39.597656 L 30.984375 38.894531 L 33.824219 37.527344 L 36.289062 35.5625 L 37.710938 34.140625 L 26.339844 22.769531 L 14.964844 34.140625 L 16.386719 35.5625 M 40.554688 31.296875 L 42.6875 29.164062 L 44.164062 27.128906 L 44.941406 24.738281 L 44.941406 22.222656 L 44.164062 19.828125 L 42.6875 17.792969 L 40.652344 16.316406 L 38.257812 15.539062 L 35.742188 15.539062 L 33.347656 16.316406 L 31.3125 17.792969 L 31.035156 18.074219 L 29.179688 19.925781 L 40.554688 31.296875 "/>
<g clip-path="url(#clip1)" clip-rule="nonzero">
<path style=" stroke:none;fill-rule:evenodd;fill:rgb(100%,100%,100%);fill-opacity:1;" d="M 60.867188 31.179688 L 61.816406 30.742188 L 63.214844 30.558594 L 64.59375 30.863281 L 66.523438 32.046875 L 78.394531 20.175781 L 71.238281 12.71875 L 64.421875 4.949219 L 62.820312 2.859375 L 62.480469 2.039062 L 62.601562 1.398438 L 63.328125 0.847656 L 64.03125 0.785156 L 64.976562 1.0625 L 67.101562 2.238281 L 69.070312 3.652344 L 72.757812 6.757812 L 76.261719 10.066406 L 82.414062 16.15625 L 86.597656 11.972656 L 87.703125 11.40625 L 88.933594 11.605469 L 89.8125 12.480469 L 90.003906 13.710938 L 89.441406 14.816406 L 85.257812 19 L 91.34375 25.152344 L 94.65625 28.652344 L 97.761719 32.34375 L 99.175781 34.3125 L 100.347656 36.433594 L 100.628906 37.382812 L 100.566406 38.085938 L 100.015625 38.8125 L 99.371094 38.933594 L 98.554688 38.59375 L 96.464844 36.992188 L 88.695312 30.171875 L 81.238281 23.019531 L 69.367188 34.890625 L 70.546875 36.820312 L 70.855469 38.199219 L 70.671875 39.597656 L 70.234375 40.546875 L 68.277344 39.277344 L 66.527344 37.726562 L 63.839844 40.417969 L 62.515625 39.902344 L 61.511719 38.898438 L 60.996094 37.574219 L 63.683594 34.882812 L 62.140625 33.136719 L 60.867188 31.179688 "/>
</g>
</g>
</svg>
