<?xml version="1.0" encoding="UTF-8"?>
<svg xmlns="http://www.w3.org/2000/svg" xmlns:xlink="http://www.w3.org/1999/xlink" width="441.232pt" height="242.1601pt" viewBox="0 0 441.232 242.1601" version="1.1">
<g id="surface1">
<path style=" stroke:none;fill-rule:evenodd;fill:rgb(0%,0%,0%);fill-opacity:1;" d="M 44.191406 179.46875 L 71.679688 151.984375 L 64.160156 144.464844 L 60.1875 139.878906 L 56.910156 134.777344 L 54.390625 129.257812 L 52.679688 123.4375 L 51.816406 117.433594 L 51.816406 111.367188 L 52.679688 105.363281 L 54.390625 99.539062 L 56.910156 94.023438 L 60.1875 88.917969 L 64.160156 84.332031 L 68.746094 80.359375 L 73.851562 77.082031 L 79.371094 74.558594 L 85.1875 72.851562 L 91.195312 71.988281 L 97.261719 71.988281 L 103.265625 72.851562 L 109.089844 74.558594 L 114.605469 77.082031 L 119.710938 80.359375 L 124.292969 84.332031 L 131.8125 91.847656 L 138.722656 84.933594 L 139.328125 84.332031 L 143.941406 80.335938 L 149.085938 77.042969 L 154.648438 74.519531 L 160.515625 72.816406 L 166.5625 71.972656 L 172.667969 72.007812 L 178.710938 72.914062 L 184.558594 74.675781 L 189.960938 77.1875 L 194.960938 80.425781 L 199.460938 84.332031 L 203.367188 88.828125 L 206.605469 93.832031 L 209.117188 99.234375 L 210.878906 105.082031 L 211.785156 111.121094 L 211.820312 117.226562 L 210.972656 123.277344 L 209.273438 129.144531 L 206.75 134.707031 L 203.457031 139.847656 L 199.460938 144.464844 L 191.941406 151.984375 L 208.96875 169.007812 L 212.753906 172.183594 L 217.03125 174.65625 L 221.675781 176.34375 L 226.542969 177.203125 L 231.484375 177.203125 L 236.351562 176.34375 L 240.992188 174.65625 L 245.269531 172.183594 L 249.054688 169.007812 L 250.753906 172.21875 L 253.058594 175.027344 L 255.867188 177.332031 L 259.078125 179.027344 L 254.496094 183.003906 L 249.390625 186.28125 L 243.871094 188.800781 L 238.050781 190.511719 L 232.042969 191.375 L 225.976562 191.375 L 219.972656 190.511719 L 214.152344 188.800781 L 208.636719 186.28125 L 203.53125 183.003906 L 198.945312 179.027344 L 181.921875 162.003906 L 176.910156 167.015625 L 171.144531 172.125 L 164.804688 176.496094 L 157.984375 180.078125 L 150.785156 182.808594 L 143.308594 184.648438 L 135.660156 185.578125 L 127.957031 185.578125 L 120.3125 184.648438 L 112.835938 182.808594 L 105.636719 180.078125 L 98.816406 176.496094 L 92.476562 172.125 L 86.710938 167.015625 L 81.699219 162.003906 L 54.214844 189.492188 L 52.199219 190.902344 L 49.820312 191.539062 L 47.367188 191.324219 L 45.136719 190.285156 L 43.398438 188.542969 L 42.355469 186.3125 L 42.144531 183.863281 L 42.78125 181.484375 L 44.191406 179.46875 M 74.183594 134.441406 L 81.699219 141.960938 L 121.789062 101.871094 L 114.273438 94.355469 L 110.484375 91.179688 L 106.207031 88.707031 L 101.566406 87.019531 L 96.699219 86.160156 L 91.757812 86.160156 L 86.890625 87.019531 L 82.246094 88.707031 L 77.96875 91.179688 L 74.183594 94.355469 L 71.007812 98.140625 L 68.535156 102.417969 L 66.847656 107.0625 L 65.988281 111.929688 L 65.988281 116.871094 L 66.847656 121.734375 L 68.535156 126.378906 L 71.007812 130.65625 L 74.183594 134.441406 M 96.730469 156.992188 L 101.613281 161.273438 L 107.007812 164.875 L 112.828125 167.746094 L 118.972656 169.832031 L 125.335938 171.097656 L 131.8125 171.523438 L 138.285156 171.097656 L 144.648438 169.832031 L 150.792969 167.746094 L 156.613281 164.875 L 162.007812 161.273438 L 166.886719 156.992188 L 171.898438 151.984375 L 131.8125 111.894531 L 91.722656 151.984375 L 96.730469 156.992188 M 181.921875 141.960938 L 186.9375 136.945312 L 189.4375 134.441406 L 192.613281 130.65625 L 195.082031 126.378906 L 196.773438 121.734375 L 197.632812 116.871094 L 197.632812 111.929688 L 196.773438 107.0625 L 195.082031 102.417969 L 192.613281 98.140625 L 189.4375 94.355469 L 185.652344 91.179688 L 181.371094 88.707031 L 176.726562 87.019531 L 171.863281 86.160156 L 166.921875 86.160156 L 162.054688 87.019531 L 157.414062 88.707031 L 153.132812 91.179688 L 149.347656 94.355469 L 141.832031 101.871094 L 181.921875 141.960938 "/>
<path style=" stroke:none;fill-rule:evenodd;fill:rgb(0%,0%,0%);fill-opacity:1;" d="M 253.523438 141.542969 L 256.871094 140 L 260.136719 139.375 L 263.464844 139.523438 L 266.660156 140.4375 L 270.234375 142.238281 L 273.457031 144.605469 L 315.308594 102.753906 L 298.363281 85.351562 L 281.941406 67.453125 L 266.058594 49.078125 L 263.117188 45.480469 L 260.40625 41.710938 L 259.652344 40.335938 L 259.21875 38.828125 L 259.246094 37.664062 L 259.640625 36.566406 L 260.726562 35.339844 L 262.195312 34.613281 L 263.421875 34.386719 L 264.671875 34.402344 L 266.382812 34.765625 L 268.015625 35.390625 L 273.054688 38.050781 L 277.878906 41.097656 L 282.445312 44.507812 L 291.179688 51.71875 L 299.628906 59.261719 L 307.785156 67.125 L 329.476562 88.585938 L 344.226562 73.835938 L 346.242188 72.425781 L 348.617188 71.789062 L 351.070312 72.003906 L 353.300781 73.042969 L 355.042969 74.785156 L 356.082031 77.015625 L 356.296875 79.464844 L 355.660156 81.84375 L 354.25 83.859375 L 339.496094 98.609375 L 360.960938 120.300781 L 368.820312 128.457031 L 376.363281 136.90625 L 383.578125 145.640625 L 386.988281 150.207031 L 390.03125 155.027344 L 392.695312 160.070312 L 393.320312 161.699219 L 393.679688 163.410156 L 393.699219 164.660156 L 393.472656 165.890625 L 392.746094 167.359375 L 391.519531 168.445312 L 390.421875 168.839844 L 389.257812 168.867188 L 387.75 168.4375 L 386.375 167.679688 L 382.601562 164.96875 L 379.007812 162.027344 L 360.632812 146.144531 L 342.734375 129.722656 L 325.332031 112.773438 L 315.609375 122.5 L 283.480469 154.628906 L 285.847656 157.851562 L 287.648438 161.421875 L 288.5625 164.621094 L 288.707031 167.945312 L 288.085938 171.214844 L 286.539062 174.5625 L 281.867188 171.683594 L 277.5 168.363281 L 273.480469 164.628906 L 264 174.109375 L 261.105469 173.25 L 258.511719 171.707031 L 256.375 169.574219 L 254.835938 166.980469 L 253.976562 164.085938 L 263.457031 154.605469 L 259.722656 150.585938 L 256.402344 146.21875 L 253.523438 141.542969 "/>
</g>
</svg>
