<?xml version="1.0" encoding="UTF-8"?>
<svg xmlns="http://www.w3.org/2000/svg" xmlns:xlink="http://www.w3.org/1999/xlink" width="1544.2674pt" height="713.0979pt" viewBox="0 0 1544.2674 713.0979" version="1.1">
<g id="surface1">
<path style=" stroke:none;fill-rule:evenodd;fill:rgb(100%,100%,100%);fill-opacity:1;" d="M 52.8125 624.492188 L 166.058594 511.246094 L 135.089844 480.277344 L 126.566406 471.125 L 118.722656 461.386719 L 111.589844 451.117188 L 105.207031 440.359375 L 99.609375 429.179688 L 94.824219 417.625 L 90.875 405.757812 L 87.785156 393.644531 L 85.5625 381.335938 L 84.226562 368.902344 L 83.78125 356.40625 L 84.226562 343.910156 L 85.5625 331.472656 L 87.785156 319.167969 L 90.875 307.050781 L 94.824219 295.1875 L 99.609375 283.632812 L 105.207031 272.449219 L 111.589844 261.695312 L 118.722656 251.421875 L 126.566406 241.6875 L 135.089844 232.53125 L 144.242188 224.011719 L 153.980469 216.164062 L 164.25 209.035156 L 175.003906 202.652344 L 186.1875 197.054688 L 197.742188 192.269531 L 209.605469 188.320312 L 221.722656 185.226562 L 234.027344 183.007812 L 246.464844 181.671875 L 258.960938 181.222656 L 271.457031 181.671875 L 283.894531 183.007812 L 296.199219 185.226562 L 308.316406 188.320312 L 320.179688 192.269531 L 331.734375 197.054688 L 342.917969 202.652344 L 353.671875 209.035156 L 363.945312 216.164062 L 373.679688 224.011719 L 382.835938 232.53125 L 413.800781 263.5 L 444.769531 232.53125 L 453.988281 223.957031 L 463.792969 216.0625 L 474.144531 208.898438 L 484.980469 202.492188 L 496.25 196.882812 L 507.894531 192.09375 L 519.851562 188.15625 L 532.0625 185.085938 L 544.460938 182.902344 L 556.984375 181.613281 L 569.566406 181.226562 L 582.144531 181.746094 L 594.652344 183.167969 L 607.03125 185.480469 L 619.203125 188.679688 L 631.121094 192.746094 L 642.433594 197.523438 L 653.382812 203.082031 L 663.917969 209.398438 L 673.980469 216.433594 L 683.53125 224.160156 L 692.515625 232.53125 L 700.886719 241.515625 L 708.613281 251.0625 L 715.648438 261.128906 L 721.964844 271.664062 L 727.523438 282.613281 L 732.300781 293.925781 L 736.367188 305.84375 L 739.566406 318.015625 L 741.878906 330.394531 L 743.300781 342.902344 L 743.820312 355.480469 L 743.4375 368.0625 L 742.144531 380.585938 L 739.960938 392.984375 L 736.890625 405.195312 L 732.953125 417.152344 L 728.164062 428.796875 L 722.554688 440.066406 L 716.148438 450.902344 L 708.984375 461.253906 L 701.089844 471.058594 L 692.515625 480.277344 L 680.640625 492.148438 L 661.546875 511.246094 L 731.691406 581.390625 L 739.203125 588.273438 L 747.285156 594.476562 L 755.878906 599.953125 L 764.917969 604.65625 L 774.328125 608.554688 L 784.042969 611.621094 L 793.992188 613.820312 L 804.09375 615.152344 L 814.273438 615.597656 L 824.449219 615.152344 L 834.550781 613.820312 L 844.5 611.621094 L 854.214844 608.554688 L 863.628906 604.65625 L 872.667969 599.953125 L 881.257812 594.476562 L 889.339844 588.273438 L 896.851562 581.390625 L 900.023438 588.179688 L 903.855469 594.621094 L 908.308594 600.644531 L 913.332031 606.199219 L 918.890625 611.226562 L 924.914062 615.679688 L 931.355469 619.511719 L 938.144531 622.683594 L 928.992188 631.203125 L 919.253906 639.050781 L 908.980469 646.183594 L 898.226562 652.5625 L 887.042969 658.160156 L 875.492188 662.945312 L 863.628906 666.894531 L 851.507812 669.988281 L 839.203125 672.207031 L 826.769531 673.546875 L 814.273438 673.988281 L 801.777344 673.546875 L 789.339844 672.207031 L 777.035156 669.988281 L 764.917969 666.894531 L 753.054688 662.945312 L 741.5 658.160156 L 730.316406 652.5625 L 719.5625 646.183594 L 709.289062 639.050781 L 699.550781 631.203125 L 690.398438 622.683594 L 620.257812 552.535156 L 599.609375 573.179688 L 588.050781 584.0625 L 575.855469 594.222656 L 563.074219 603.632812 L 549.742188 612.25 L 535.917969 620.046875 L 521.648438 626.996094 L 506.980469 633.070312 L 491.976562 638.246094 L 476.6875 642.511719 L 461.167969 645.84375 L 445.472656 648.230469 L 429.667969 649.664062 L 413.800781 650.144531 L 397.933594 649.664062 L 382.128906 648.230469 L 366.4375 645.84375 L 350.914062 642.511719 L 335.625 638.246094 L 320.621094 633.070312 L 305.957031 626.996094 L 291.6875 620.046875 L 277.859375 612.25 L 264.53125 603.632812 L 251.746094 594.222656 L 239.550781 584.0625 L 227.996094 573.179688 L 207.347656 552.535156 L 94.101562 665.78125 L 90.203125 669.050781 L 85.796875 671.597656 L 81.015625 673.339844 L 76 674.222656 L 70.914062 674.222656 L 65.902344 673.339844 L 61.117188 671.597656 L 56.710938 669.050781 L 52.8125 665.78125 L 49.539062 661.882812 L 46.996094 657.476562 L 45.253906 652.691406 L 44.371094 647.683594 L 44.371094 642.589844 L 45.253906 637.578125 L 46.996094 632.796875 L 49.539062 628.390625 L 52.8125 624.492188 M 176.378906 438.984375 L 207.347656 469.953125 L 372.511719 304.792969 L 341.542969 273.824219 L 334.03125 266.941406 L 325.949219 260.738281 L 317.355469 255.265625 L 308.316406 250.5625 L 298.90625 246.660156 L 289.1875 243.597656 L 279.242188 241.390625 L 269.140625 240.0625 L 258.960938 239.617188 L 248.785156 240.0625 L 238.679688 241.390625 L 228.734375 243.597656 L 219.015625 246.660156 L 209.605469 250.5625 L 200.566406 255.265625 L 191.976562 260.738281 L 183.890625 266.941406 L 176.378906 273.824219 L 169.496094 281.335938 L 163.292969 289.417969 L 157.820312 298.011719 L 153.117188 307.050781 L 149.21875 316.460938 L 146.152344 326.179688 L 143.949219 336.125 L 142.617188 346.226562 L 142.171875 356.40625 L 142.617188 366.582031 L 143.949219 376.6875 L 146.152344 386.632812 L 149.21875 396.351562 L 153.117188 405.761719 L 157.820312 414.796875 L 163.292969 423.394531 L 169.496094 431.472656 L 176.378906 438.984375 M 269.285156 531.890625 L 279.484375 541.417969 L 290.308594 550.222656 L 301.710938 558.269531 L 313.632812 565.523438 L 326.023438 571.941406 L 338.824219 577.5 L 351.972656 582.175781 L 365.414062 585.941406 L 379.074219 588.78125 L 392.898438 590.679688 L 406.824219 591.632812 L 420.777344 591.632812 L 434.703125 590.679688 L 448.527344 588.78125 L 462.191406 585.941406 L 475.628906 582.175781 L 488.777344 577.5 L 501.578125 571.941406 L 513.96875 565.523438 L 525.894531 558.269531 L 537.292969 550.222656 L 548.121094 541.417969 L 558.320312 531.890625 L 578.964844 511.246094 L 413.800781 346.082031 L 248.640625 511.246094 L 269.285156 531.890625 M 620.257812 469.953125 L 640.917969 449.292969 L 651.222656 438.984375 L 658.105469 431.472656 L 664.308594 423.394531 L 669.78125 414.796875 L 674.484375 405.761719 L 678.386719 396.351562 L 681.449219 386.632812 L 683.65625 376.6875 L 684.984375 366.582031 L 685.429688 356.40625 L 684.984375 346.226562 L 683.65625 336.125 L 681.449219 326.179688 L 678.386719 316.460938 L 674.484375 307.050781 L 669.78125 298.011719 L 664.308594 289.417969 L 658.105469 281.335938 L 651.222656 273.824219 L 643.710938 266.941406 L 635.628906 260.738281 L 627.035156 255.265625 L 617.996094 250.5625 L 608.585938 246.660156 L 598.867188 243.597656 L 588.921875 241.390625 L 578.820312 240.0625 L 568.640625 239.617188 L 558.464844 240.0625 L 548.359375 241.390625 L 538.414062 243.597656 L 528.695312 246.660156 L 519.285156 250.5625 L 510.25 255.265625 L 501.652344 260.738281 L 493.574219 266.941406 L 486.0625 273.824219 L 482.015625 277.867188 L 455.09375 304.792969 L 620.257812 469.953125 "/>
<path style=" stroke:none;fill-rule:evenodd;fill:rgb(100%,100%,100%);fill-opacity:1;" d="M 915.265625 468.242188 L 921.992188 464.695312 L 929.054688 461.875 L 935.710938 460.199219 L 942.515625 459.308594 L 949.382812 459.214844 L 956.210938 459.921875 L 962.910156 461.414062 L 969.386719 463.679688 L 976.902344 467.082031 L 984.109375 471.09375 L 990.953125 475.699219 L 997.390625 480.851562 L 1002.277344 475.96875 L 1169.820312 308.425781 L 1134.644531 272.835938 L 1100 236.726562 L 1065.898438 200.109375 L 1032.339844 162.992188 L 999.335938 125.378906 L 966.898438 87.28125 L 958.71875 77.488281 L 950.953125 67.359375 L 943.625 56.921875 L 941.402344 53.222656 L 939.753906 49.238281 L 938.722656 45.050781 L 938.632812 41.847656 L 939.21875 38.691406 L 940.453125 35.730469 L 942.449219 32.992188 L 944.9375 30.683594 L 947.820312 28.894531 L 950.988281 27.691406 L 954.34375 26.957031 L 957.769531 26.664062 L 961.203125 26.820312 L 965.925781 27.6875 L 970.527344 29.050781 L 974.960938 30.890625 L 987.53125 37.273438 L 999.785156 44.234375 L 1011.703125 51.765625 L 1023.253906 59.839844 L 1034.414062 68.449219 L 1056.144531 86.113281 L 1077.460938 104.273438 L 1098.355469 122.921875 L 1118.808594 142.046875 L 1138.816406 161.636719 L 1183.761719 205.585938 L 1228.1875 250.058594 L 1288.957031 189.289062 L 1292.851562 186.019531 L 1297.261719 183.472656 L 1302.042969 181.734375 L 1307.054688 180.847656 L 1312.144531 180.847656 L 1317.15625 181.734375 L 1321.941406 183.472656 L 1326.347656 186.019531 L 1330.246094 189.289062 L 1333.515625 193.1875 L 1336.0625 197.597656 L 1337.800781 202.378906 L 1338.6875 207.390625 L 1338.6875 212.480469 L 1337.800781 217.492188 L 1336.0625 222.273438 L 1333.515625 226.683594 L 1330.246094 230.578125 L 1269.476562 291.347656 L 1313.953125 335.773438 L 1357.898438 380.71875 L 1377.488281 400.726562 L 1396.617188 421.183594 L 1415.261719 442.074219 L 1433.421875 463.390625 L 1451.085938 485.121094 L 1459.695312 496.28125 L 1467.769531 507.835938 L 1475.300781 519.75 L 1482.265625 532.003906 L 1488.644531 544.574219 L 1490.484375 549.007812 L 1491.84375 553.609375 L 1492.714844 558.332031 L 1492.867188 561.765625 L 1492.578125 565.191406 L 1491.84375 568.546875 L 1490.640625 571.714844 L 1488.851562 574.597656 L 1486.542969 577.085938 L 1483.804688 579.082031 L 1480.84375 580.316406 L 1477.6875 580.902344 L 1474.484375 580.8125 L 1470.296875 579.78125 L 1466.3125 578.132812 L 1462.613281 575.910156 L 1452.171875 568.578125 L 1442.046875 560.816406 L 1432.253906 552.640625 L 1394.15625 520.195312 L 1356.542969 487.195312 L 1319.425781 453.636719 L 1282.808594 419.535156 L 1246.699219 384.890625 L 1211.109375 349.714844 L 1038.683594 522.140625 L 1043.835938 528.582031 L 1048.441406 535.425781 L 1052.453125 542.632812 L 1055.855469 550.144531 L 1058.121094 556.628906 L 1059.617188 563.324219 L 1060.320312 570.152344 L 1060.226562 577.015625 L 1059.335938 583.824219 L 1057.664062 590.480469 L 1054.839844 597.542969 L 1051.292969 604.269531 L 1039.601562 597.378906 L 1028.335938 589.816406 L 1017.539062 581.605469 L 1007.238281 572.769531 L 997.480469 563.34375 L 958.417969 602.410156 L 951.683594 600.8125 L 945.234375 598.300781 L 939.195312 594.929688 L 933.671875 590.757812 L 928.777344 585.863281 L 924.605469 580.339844 L 921.234375 574.300781 L 918.726562 567.847656 L 917.125 561.117188 L 956.191406 522.054688 L 946.765625 512.296875 L 937.929688 501.996094 L 929.71875 491.199219 L 922.15625 479.933594 L 915.265625 468.242188 "/>
</g>
</svg>
